<svg width="500" height="300" viewBox="0 0 678 319" fill="none" xmlns="http://www.w3.org/2000/svg">
<mask id="path-1-outside-1_105_2" maskUnits="userSpaceOnUse" x="85" y="22" width="515" height="234" fill="black">
<rect fill="white" x="85" y="22" width="515" height="234"/>
<path d="M223.199 45.6591L226.303 27.3636H298.995L295.891 45.6591H270.735L259.954 111H237.574L248.356 45.6591H223.199ZM379.745 70.652C378.22 79.7453 375.198 87.3684 370.679 93.5213C366.159 99.6742 360.673 104.316 354.221 107.447C347.769 110.578 340.867 112.143 333.516 112.143C325.675 112.143 318.869 110.442 313.097 107.039C307.325 103.636 303.119 98.6533 300.478 92.092C297.837 85.5307 297.306 77.5128 298.885 68.0384C300.356 58.9451 303.35 51.2947 307.87 45.0874C312.389 38.88 317.902 34.1836 324.409 30.9982C330.916 27.8129 337.872 26.2202 345.277 26.2202C353.064 26.2202 359.829 27.9354 365.574 31.3658C371.346 34.7962 375.538 39.8192 378.152 46.435C380.793 53.0508 381.324 61.1231 379.745 70.652ZM356.875 68.0384C357.638 63.2467 357.692 59.2173 357.039 55.9503C356.385 52.656 355.011 50.1785 352.914 48.5178C350.818 46.8298 348 45.9858 344.461 45.9858C340.431 45.9858 336.865 46.9659 333.761 48.9261C330.657 50.8864 328.085 53.7042 326.043 57.3796C324.001 61.055 322.571 65.4792 321.755 70.652C320.883 75.4981 320.802 79.5275 321.51 82.7401C322.245 85.9527 323.688 88.3621 325.839 89.9684C328.017 91.5747 330.848 92.3778 334.333 92.3778C338.308 92.3778 341.82 91.425 344.869 89.5192C347.946 87.6134 350.491 84.85 352.506 81.229C354.548 77.6081 356.004 73.2112 356.875 68.0384ZM385.853 111L399.738 27.3636H435.839C442.046 27.3636 447.273 28.5888 451.521 31.0391C455.768 33.4893 458.817 36.9334 460.668 41.3711C462.52 45.8088 462.955 50.9953 461.975 56.9304C460.995 62.9744 458.817 68.1881 455.441 72.5714C452.092 76.9274 447.818 80.2898 442.618 82.6584C437.445 84.9998 431.646 86.1705 425.221 86.1705H403.658L406.599 68.5284H423.587C426.31 68.5284 428.706 68.0656 430.775 67.1399C432.844 66.187 434.518 64.853 435.798 63.1378C437.077 61.3954 437.908 59.3262 438.289 56.9304C438.67 54.5346 438.493 52.4927 437.758 50.8047C437.05 49.0895 435.825 47.7827 434.083 46.8842C432.367 45.9586 430.176 45.4957 427.508 45.4957H419.503L408.559 111H385.853ZM169.83 197.727H147.124C147.287 195.794 147.178 194.052 146.797 192.5C146.416 190.948 145.763 189.614 144.837 188.498C143.911 187.354 142.7 186.483 141.202 185.884C139.705 185.285 137.922 184.986 135.853 184.986C131.878 184.986 128.325 185.98 125.194 187.967C122.063 189.927 119.463 192.745 117.394 196.42C115.325 200.069 113.855 204.425 112.983 209.489C112.221 214.389 112.194 218.459 112.902 221.699C113.637 224.939 115.066 227.362 117.19 228.968C119.34 230.575 122.131 231.378 125.561 231.378C127.848 231.378 129.945 231.106 131.851 230.561C133.784 230.017 135.499 229.241 136.996 228.233C138.521 227.199 139.814 225.974 140.876 224.558C141.965 223.115 142.795 221.522 143.367 219.78H166.236C165.365 223.319 163.813 226.94 161.581 230.643C159.348 234.318 156.462 237.708 152.923 240.811C149.384 243.888 145.218 246.379 140.427 248.285C135.635 250.191 130.244 251.143 124.255 251.143C116.414 251.143 109.648 249.428 103.958 245.998C98.2953 242.567 94.1842 237.558 91.625 230.969C89.0931 224.381 88.5894 216.349 90.114 206.875C91.6387 197.727 94.6471 190.063 99.1392 183.883C103.631 177.703 109.09 173.047 115.515 169.917C121.941 166.786 128.774 165.22 136.016 165.22C141.488 165.22 146.389 165.942 150.718 167.385C155.074 168.828 158.736 170.937 161.703 173.714C164.698 176.464 166.903 179.854 168.319 183.883C169.735 187.913 170.238 192.527 169.83 197.727ZM261.576 209.652C260.051 218.745 257.029 226.368 252.509 232.521C247.99 238.674 242.504 243.316 236.052 246.447C229.599 249.578 222.698 251.143 215.347 251.143C207.506 251.143 200.7 249.442 194.928 246.039C189.156 242.636 184.95 237.653 182.309 231.092C179.668 224.531 179.137 216.513 180.716 207.038C182.186 197.945 185.181 190.295 189.701 184.087C194.22 177.88 199.733 173.184 206.24 169.998C212.747 166.813 219.703 165.22 227.108 165.22C234.895 165.22 241.66 166.935 247.405 170.366C253.176 173.796 257.369 178.819 259.983 185.435C262.624 192.051 263.155 200.123 261.576 209.652ZM238.706 207.038C239.469 202.247 239.523 198.217 238.87 194.95C238.216 191.656 236.841 189.179 234.745 187.518C232.649 185.83 229.831 184.986 226.291 184.986C222.262 184.986 218.696 185.966 215.592 187.926C212.488 189.886 209.915 192.704 207.873 196.38C205.832 200.055 204.402 204.479 203.585 209.652C202.714 214.498 202.633 218.527 203.34 221.74C204.076 224.953 205.518 227.362 207.669 228.968C209.847 230.575 212.679 231.378 216.164 231.378C220.138 231.378 223.651 230.425 226.7 228.519C229.776 226.613 232.322 223.85 234.337 220.229C236.378 216.608 237.835 212.211 238.706 207.038ZM267.684 250L281.569 166.364H340.375L337.272 184.659H301.171L298.884 199.034H331.391L328.287 217.33H295.78L290.39 250H267.684ZM337.142 250L351.027 166.364H409.834L406.73 184.659H370.629L368.342 199.034H400.849L397.746 217.33H365.238L359.848 250H337.142ZM406.6 250L420.485 166.364H480.762L477.658 184.659H440.087L437.8 199.034H472.268L469.164 217.33H434.697L432.41 231.705H469.817L466.714 250H406.6ZM480.438 250L494.323 166.364H554.6L551.496 184.659H513.925L511.638 199.034H546.106L543.002 217.33H508.535L506.248 231.705H543.655L540.552 250H480.438ZM594.461 166.364L582.863 223.864H564.404L571.755 166.364H594.461ZM569.958 251.307C566.773 251.307 564.173 250.204 562.158 247.999C560.171 245.766 559.34 243.058 559.667 239.872C559.994 236.768 561.396 234.114 563.873 231.909C566.378 229.703 569.223 228.601 572.408 228.601C575.43 228.601 577.949 229.703 579.963 231.909C582.005 234.114 582.863 236.768 582.536 239.872C582.318 241.996 581.57 243.929 580.29 245.671C579.038 247.386 577.486 248.761 575.635 249.796C573.81 250.803 571.918 251.307 569.958 251.307Z"/>
</mask>
<path d="M223.199 45.6591L226.303 27.3636H298.995L295.891 45.6591H270.735L259.954 111H237.574L248.356 45.6591H223.199ZM379.745 70.652C378.22 79.7453 375.198 87.3684 370.679 93.5213C366.159 99.6742 360.673 104.316 354.221 107.447C347.769 110.578 340.867 112.143 333.516 112.143C325.675 112.143 318.869 110.442 313.097 107.039C307.325 103.636 303.119 98.6533 300.478 92.092C297.837 85.5307 297.306 77.5128 298.885 68.0384C300.356 58.9451 303.35 51.2947 307.87 45.0874C312.389 38.88 317.902 34.1836 324.409 30.9982C330.916 27.8129 337.872 26.2202 345.277 26.2202C353.064 26.2202 359.829 27.9354 365.574 31.3658C371.346 34.7962 375.538 39.8192 378.152 46.435C380.793 53.0508 381.324 61.1231 379.745 70.652ZM356.875 68.0384C357.638 63.2467 357.692 59.2173 357.039 55.9503C356.385 52.656 355.011 50.1785 352.914 48.5178C350.818 46.8298 348 45.9858 344.461 45.9858C340.431 45.9858 336.865 46.9659 333.761 48.9261C330.657 50.8864 328.085 53.7042 326.043 57.3796C324.001 61.055 322.571 65.4792 321.755 70.652C320.883 75.4981 320.802 79.5275 321.51 82.7401C322.245 85.9527 323.688 88.3621 325.839 89.9684C328.017 91.5747 330.848 92.3778 334.333 92.3778C338.308 92.3778 341.82 91.425 344.869 89.5192C347.946 87.6134 350.491 84.85 352.506 81.229C354.548 77.6081 356.004 73.2112 356.875 68.0384ZM385.853 111L399.738 27.3636H435.839C442.046 27.3636 447.273 28.5888 451.521 31.0391C455.768 33.4893 458.817 36.9334 460.668 41.3711C462.52 45.8088 462.955 50.9953 461.975 56.9304C460.995 62.9744 458.817 68.1881 455.441 72.5714C452.092 76.9274 447.818 80.2898 442.618 82.6584C437.445 84.9998 431.646 86.1705 425.221 86.1705H403.658L406.599 68.5284H423.587C426.31 68.5284 428.706 68.0656 430.775 67.1399C432.844 66.187 434.518 64.853 435.798 63.1378C437.077 61.3954 437.908 59.3262 438.289 56.9304C438.67 54.5346 438.493 52.4927 437.758 50.8047C437.05 49.0895 435.825 47.7827 434.083 46.8842C432.367 45.9586 430.176 45.4957 427.508 45.4957H419.503L408.559 111H385.853ZM169.83 197.727H147.124C147.287 195.794 147.178 194.052 146.797 192.5C146.416 190.948 145.763 189.614 144.837 188.498C143.911 187.354 142.7 186.483 141.202 185.884C139.705 185.285 137.922 184.986 135.853 184.986C131.878 184.986 128.325 185.98 125.194 187.967C122.063 189.927 119.463 192.745 117.394 196.42C115.325 200.069 113.855 204.425 112.983 209.489C112.221 214.389 112.194 218.459 112.902 221.699C113.637 224.939 115.066 227.362 117.19 228.968C119.34 230.575 122.131 231.378 125.561 231.378C127.848 231.378 129.945 231.106 131.851 230.561C133.784 230.017 135.499 229.241 136.996 228.233C138.521 227.199 139.814 225.974 140.876 224.558C141.965 223.115 142.795 221.522 143.367 219.78H166.236C165.365 223.319 163.813 226.94 161.581 230.643C159.348 234.318 156.462 237.708 152.923 240.811C149.384 243.888 145.218 246.379 140.427 248.285C135.635 250.191 130.244 251.143 124.255 251.143C116.414 251.143 109.648 249.428 103.958 245.998C98.2953 242.567 94.1842 237.558 91.625 230.969C89.0931 224.381 88.5894 216.349 90.114 206.875C91.6387 197.727 94.6471 190.063 99.1392 183.883C103.631 177.703 109.09 173.047 115.515 169.917C121.941 166.786 128.774 165.22 136.016 165.22C141.488 165.22 146.389 165.942 150.718 167.385C155.074 168.828 158.736 170.937 161.703 173.714C164.698 176.464 166.903 179.854 168.319 183.883C169.735 187.913 170.238 192.527 169.83 197.727ZM261.576 209.652C260.051 218.745 257.029 226.368 252.509 232.521C247.99 238.674 242.504 243.316 236.052 246.447C229.599 249.578 222.698 251.143 215.347 251.143C207.506 251.143 200.7 249.442 194.928 246.039C189.156 242.636 184.95 237.653 182.309 231.092C179.668 224.531 179.137 216.513 180.716 207.038C182.186 197.945 185.181 190.295 189.701 184.087C194.22 177.88 199.733 173.184 206.24 169.998C212.747 166.813 219.703 165.22 227.108 165.22C234.895 165.22 241.66 166.935 247.405 170.366C253.176 173.796 257.369 178.819 259.983 185.435C262.624 192.051 263.155 200.123 261.576 209.652ZM238.706 207.038C239.469 202.247 239.523 198.217 238.87 194.95C238.216 191.656 236.841 189.179 234.745 187.518C232.649 185.83 229.831 184.986 226.291 184.986C222.262 184.986 218.696 185.966 215.592 187.926C212.488 189.886 209.915 192.704 207.873 196.38C205.832 200.055 204.402 204.479 203.585 209.652C202.714 214.498 202.633 218.527 203.34 221.74C204.076 224.953 205.518 227.362 207.669 228.968C209.847 230.575 212.679 231.378 216.164 231.378C220.138 231.378 223.651 230.425 226.7 228.519C229.776 226.613 232.322 223.85 234.337 220.229C236.378 216.608 237.835 212.211 238.706 207.038ZM267.684 250L281.569 166.364H340.375L337.272 184.659H301.171L298.884 199.034H331.391L328.287 217.33H295.78L290.39 250H267.684ZM337.142 250L351.027 166.364H409.834L406.73 184.659H370.629L368.342 199.034H400.849L397.746 217.33H365.238L359.848 250H337.142ZM406.6 250L420.485 166.364H480.762L477.658 184.659H440.087L437.8 199.034H472.268L469.164 217.33H434.697L432.41 231.705H469.817L466.714 250H406.6ZM480.438 250L494.323 166.364H554.6L551.496 184.659H513.925L511.638 199.034H546.106L543.002 217.33H508.535L506.248 231.705H543.655L540.552 250H480.438ZM594.461 166.364L582.863 223.864H564.404L571.755 166.364H594.461ZM569.958 251.307C566.773 251.307 564.173 250.204 562.158 247.999C560.171 245.766 559.34 243.058 559.667 239.872C559.994 236.768 561.396 234.114 563.873 231.909C566.378 229.703 569.223 228.601 572.408 228.601C575.43 228.601 577.949 229.703 579.963 231.909C582.005 234.114 582.863 236.768 582.536 239.872C582.318 241.996 581.57 243.929 580.29 245.671C579.038 247.386 577.486 248.761 575.635 249.796C573.81 250.803 571.918 251.307 569.958 251.307Z" fill="#876D6D"/>
<path d="M223.199 45.6591L219.256 44.9901L218.464 49.6591H223.199V45.6591ZM226.303 27.3636V23.3636H222.924L222.359 26.6946L226.303 27.3636ZM298.995 27.3636L302.938 28.0326L303.731 23.3636H298.995V27.3636ZM295.891 45.6591V49.6591H299.27L299.835 46.3281L295.891 45.6591ZM270.735 45.6591V41.6591H267.341L266.788 45.0079L270.735 45.6591ZM259.954 111V115H263.348L263.9 111.651L259.954 111ZM237.574 111L233.628 110.349L232.86 115H237.574V111ZM248.356 45.6591L252.302 46.3103L253.07 41.6591H248.356V45.6591ZM227.143 46.3281L230.247 28.0326L222.359 26.6946L219.256 44.9901L227.143 46.3281ZM226.303 31.3636H298.995V23.3636H226.303V31.3636ZM295.051 26.6946L291.947 44.9901L299.835 46.3281L302.938 28.0326L295.051 26.6946ZM295.891 41.6591H270.735V49.6591H295.891V41.6591ZM266.788 45.0079L256.007 110.349L263.9 111.651L274.682 46.3103L266.788 45.0079ZM259.954 107H237.574V115H259.954V107ZM241.521 111.651L252.302 46.3103L244.409 45.0079L233.628 110.349L241.521 111.651ZM248.356 41.6591H223.199V49.6591H248.356V41.6591ZM379.745 70.652L383.69 71.3134L383.691 71.3059L379.745 70.652ZM370.679 93.5213L367.455 91.1534L367.455 91.1534L370.679 93.5213ZM354.221 107.447L355.967 111.046L355.967 111.046L354.221 107.447ZM313.097 107.039L315.129 103.593L315.129 103.593L313.097 107.039ZM300.478 92.092L304.189 90.5985L304.189 90.5984L300.478 92.092ZM298.885 68.0384L302.831 68.6959L302.833 68.6864L302.834 68.6768L298.885 68.0384ZM307.87 45.0874L304.636 42.733L304.636 42.733L307.87 45.0874ZM324.409 30.9982L322.65 27.4056L322.65 27.4056L324.409 30.9982ZM365.574 31.3658L363.523 34.8L363.53 34.8043L365.574 31.3658ZM378.152 46.435L374.432 47.9047L374.434 47.9113L374.437 47.9179L378.152 46.435ZM356.875 68.0384L360.82 68.7027L360.823 68.6848L360.826 68.6668L356.875 68.0384ZM357.039 55.9503L353.115 56.7285L353.116 56.7348L357.039 55.9503ZM352.914 48.5178L350.406 51.6333L350.418 51.6433L350.43 51.6531L352.914 48.5178ZM333.761 48.9261L331.625 45.5442L331.625 45.5442L333.761 48.9261ZM321.755 70.652L325.692 71.3597L325.699 71.3179L325.706 71.2758L321.755 70.652ZM321.51 82.7401L317.603 83.6008L317.607 83.6165L317.61 83.6323L321.51 82.7401ZM325.839 89.9684L323.445 93.1733L323.455 93.1805L323.464 93.1876L325.839 89.9684ZM344.869 89.5192L342.763 86.1188L342.756 86.123L342.749 86.1272L344.869 89.5192ZM352.506 81.229L349.022 79.2643L349.016 79.2742L349.01 79.2842L352.506 81.229ZM375.8 69.9906C374.357 78.5932 371.534 85.5993 367.455 91.1534L373.903 95.8892C378.862 89.1374 382.083 80.8974 383.69 71.3134L375.8 69.9906ZM367.455 91.1534C363.295 96.8168 358.304 101.02 352.475 103.848L355.967 111.046C363.043 107.613 369.024 102.532 373.903 95.8892L367.455 91.1534ZM352.475 103.848C346.58 106.708 340.278 108.143 333.516 108.143V116.143C341.456 116.143 348.957 114.448 355.967 111.046L352.475 103.848ZM333.516 108.143C326.267 108.143 320.187 106.576 315.129 103.593L311.065 110.484C317.551 114.308 325.084 116.143 333.516 116.143V108.143ZM315.129 103.593C310.16 100.664 306.52 96.3905 304.189 90.5985L296.767 93.5855C299.718 100.916 304.49 106.607 311.065 110.484L315.129 103.593ZM304.189 90.5984C301.904 84.9214 301.331 77.696 302.831 68.6959L294.94 67.3808C293.282 77.3296 293.771 86.1399 296.767 93.5855L304.189 90.5984ZM302.834 68.6768C304.224 60.081 307.021 53.0495 311.103 47.4417L304.636 42.733C299.68 49.54 296.487 57.8091 294.937 67.3999L302.834 68.6768ZM311.103 47.4417C315.263 41.7286 320.281 37.4726 326.168 34.5908L322.65 27.4056C315.523 30.8946 309.515 36.0314 304.636 42.733L311.103 47.4417ZM326.168 34.5908C332.115 31.6796 338.468 30.2202 345.277 30.2202V22.2202C337.276 22.2202 329.717 23.9461 322.65 27.4056L326.168 34.5908ZM345.277 30.2202C352.462 30.2202 358.494 31.7968 363.523 34.8L367.625 27.9315C361.165 24.0739 353.666 22.2202 345.277 22.2202V30.2202ZM363.53 34.8043C368.494 37.7542 372.123 42.0603 374.432 47.9047L381.872 44.9653C378.954 37.5782 374.198 31.8382 367.618 27.9272L363.53 34.8043ZM374.437 47.9179C376.727 53.6557 377.299 60.9419 375.799 69.998L383.691 71.3059C385.348 61.3043 384.858 52.4459 381.867 44.9521L374.437 47.9179ZM360.826 68.6668C361.632 63.6011 361.74 59.059 360.961 55.1658L353.116 56.7348C353.645 59.3756 353.644 62.8923 352.925 67.4099L360.826 68.6668ZM360.962 55.1721C360.173 51.1915 358.414 47.7717 355.398 45.3824L350.43 51.6531C351.607 52.5853 352.598 54.1205 353.115 56.7285L360.962 55.1721ZM355.423 45.4022C352.419 42.9835 348.623 41.9858 344.461 41.9858V49.9858C347.377 49.9858 349.217 50.6761 350.406 51.6333L355.423 45.4022ZM344.461 41.9858C339.752 41.9858 335.43 43.1412 331.625 45.5442L335.897 52.3081C338.3 50.7906 341.111 49.9858 344.461 49.9858V41.9858ZM331.625 45.5442C327.877 47.9117 324.866 51.2615 322.546 55.437L329.539 59.3222C331.303 56.1469 333.438 53.861 335.897 52.3081L331.625 45.5442ZM322.546 55.437C320.228 59.6087 318.676 64.5017 317.804 70.0281L325.706 71.2758C326.467 66.4566 327.773 62.5014 329.539 59.3222L322.546 55.437ZM317.818 69.9442C316.895 75.0761 316.74 79.6823 317.603 83.6008L325.416 81.8793C324.864 79.3726 324.872 75.9201 325.692 71.3597L317.818 69.9442ZM317.61 83.6323C318.507 87.5514 320.372 90.878 323.445 93.1733L328.232 86.7635C327.004 85.8462 325.982 84.3539 325.409 81.8479L317.61 83.6323ZM323.464 93.1876C326.505 95.4301 330.24 96.3778 334.333 96.3778V88.3778C331.456 88.3778 329.528 87.7193 328.213 86.7492L323.464 93.1876ZM334.333 96.3778C338.976 96.3778 343.238 95.2554 346.989 92.9112L342.749 86.1272C340.401 87.5945 337.64 88.3778 334.333 88.3778V96.3778ZM346.976 92.9196C350.711 90.6056 353.704 87.303 356.001 83.1738L349.01 79.2842C347.278 82.397 345.18 84.6212 342.763 86.1188L346.976 92.9196ZM355.99 83.1938C358.31 79.0793 359.891 74.2179 360.82 68.7027L352.931 67.374C352.117 72.2044 350.785 76.1369 349.022 79.2643L355.99 83.1938ZM385.853 111L381.907 110.345L381.134 115H385.853V111ZM399.738 27.3636V23.3636H396.347L395.792 26.7085L399.738 27.3636ZM451.521 31.0391L449.522 34.5038L449.522 34.5038L451.521 31.0391ZM460.668 41.3711L464.36 39.831L464.36 39.831L460.668 41.3711ZM461.975 56.9304L458.029 56.2787L458.027 56.2901L461.975 56.9304ZM455.441 72.5714L452.272 70.1306L452.27 70.1335L455.441 72.5714ZM442.618 82.6584L444.267 86.3025L444.276 86.2985L442.618 82.6584ZM403.658 86.1705L399.713 85.5129L398.936 90.1705H403.658V86.1705ZM406.599 68.5284V64.5284H403.21L402.653 67.8708L406.599 68.5284ZM430.775 67.1399L432.408 70.7912L432.428 70.7823L432.448 70.7731L430.775 67.1399ZM435.798 63.1378L439.004 65.5296L439.013 65.5176L439.022 65.5054L435.798 63.1378ZM438.289 56.9304L442.239 57.5589L442.239 57.5589L438.289 56.9304ZM437.758 50.8047L434.061 52.3306L434.075 52.3663L434.091 52.4018L437.758 50.8047ZM434.083 46.8842L432.183 50.4043L432.216 50.4222L432.25 50.4394L434.083 46.8842ZM419.503 45.4957V41.4957H416.116L415.558 44.8365L419.503 45.4957ZM408.559 111V115H411.946L412.504 111.659L408.559 111ZM389.799 111.655L403.684 28.0187L395.792 26.7085L381.907 110.345L389.799 111.655ZM399.738 31.3636H435.839V23.3636H399.738V31.3636ZM435.839 31.3636C441.528 31.3636 446.024 32.4858 449.522 34.5038L453.519 27.5743C448.523 24.6918 442.564 23.3636 435.839 23.3636V31.3636ZM449.522 34.5038C453.025 36.5249 455.47 39.3004 456.977 42.9112L464.36 39.831C462.164 34.5663 458.51 30.4538 453.519 27.5743L449.522 34.5038ZM456.977 42.9112C458.475 46.502 458.917 50.8987 458.029 56.2787L465.922 57.5821C466.993 51.0918 466.565 45.1157 464.36 39.831L456.977 42.9112ZM458.027 56.2901C457.141 61.7499 455.201 66.3279 452.272 70.1306L458.61 75.0121C462.433 70.0483 464.849 64.1989 465.924 57.5707L458.027 56.2901ZM452.27 70.1335C449.336 73.9501 445.589 76.9094 440.96 79.0182L444.276 86.2985C450.046 83.6701 454.849 79.9048 458.612 75.0093L452.27 70.1335ZM440.968 79.0143C436.378 81.0921 431.152 82.1705 425.221 82.1705V90.1705C432.14 90.1705 438.512 88.9075 444.267 86.3025L440.968 79.0143ZM425.221 82.1705H403.658V90.1705H425.221V82.1705ZM407.604 86.8281L410.544 69.186L402.653 67.8708L399.713 85.5129L407.604 86.8281ZM406.599 72.5284H423.587V64.5284H406.599V72.5284ZM423.587 72.5284C426.762 72.5284 429.733 71.9882 432.408 70.7912L429.141 63.4886C427.679 64.143 425.858 64.5284 423.587 64.5284V72.5284ZM432.448 70.7731C435.083 69.5595 437.299 67.8146 439.004 65.5296L432.592 60.7459C431.737 61.8913 430.605 62.8145 429.102 63.5067L432.448 70.7731ZM439.022 65.5054C440.723 63.1894 441.77 60.5062 442.239 57.5589L434.339 56.3019C434.045 58.1463 433.432 59.6013 432.574 60.7701L439.022 65.5054ZM442.239 57.5589C442.703 54.644 442.548 51.7851 441.425 49.2076L434.091 52.4018C434.438 53.2002 434.637 54.4251 434.339 56.3019L442.239 57.5589ZM441.456 49.2787C440.365 46.6354 438.449 44.6351 435.916 43.329L432.25 50.4394C433.201 50.9302 433.736 51.5436 434.061 52.3306L441.456 49.2787ZM435.982 43.3641C433.508 42.0288 430.606 41.4957 427.508 41.4957V49.4957C429.746 49.4957 431.227 49.8884 432.183 50.4043L435.982 43.3641ZM427.508 41.4957H419.503V49.4957H427.508V41.4957ZM415.558 44.8365L404.614 110.341L412.504 111.659L423.449 46.1549L415.558 44.8365ZM408.559 107H385.853V115H408.559V107ZM169.83 197.727V201.727H173.528L173.818 198.04L169.83 197.727ZM147.124 197.727L143.138 197.39L142.772 201.727H147.124V197.727ZM146.797 192.5L142.913 193.454L142.913 193.454L146.797 192.5ZM144.837 188.498L141.728 191.015L141.743 191.033L141.758 191.051L144.837 188.498ZM141.202 185.884L139.717 189.598L141.202 185.884ZM125.194 187.967L127.317 191.357L127.327 191.351L127.338 191.344L125.194 187.967ZM117.394 196.42L120.873 198.394L120.879 198.383L117.394 196.42ZM112.983 209.489L109.041 208.81L109.036 208.842L109.031 208.874L112.983 209.489ZM112.902 221.699L108.994 222.553L108.997 222.569L109.001 222.584L112.902 221.699ZM117.19 228.968L114.777 232.159L114.786 232.166L114.796 232.173L117.19 228.968ZM131.851 230.561L130.766 226.711L130.759 226.713L130.752 226.715L131.851 230.561ZM136.996 228.233L139.229 231.552L139.236 231.548L139.242 231.543L136.996 228.233ZM140.876 224.558L137.683 222.148L137.676 222.158L140.876 224.558ZM143.367 219.78V215.78H140.47L139.566 218.533L143.367 219.78ZM166.236 219.78L170.12 220.736L171.34 215.78H166.236V219.78ZM161.581 230.643L164.999 232.719L165.006 232.708L161.581 230.643ZM152.923 240.811L155.547 243.83L155.554 243.825L155.56 243.819L152.923 240.811ZM140.427 248.285L138.948 244.568L138.948 244.568L140.427 248.285ZM103.958 245.998L101.886 249.419L101.893 249.423L103.958 245.998ZM91.625 230.969L87.8913 232.404L87.8938 232.411L87.8964 232.418L91.625 230.969ZM90.114 206.875L86.1685 206.217L86.1666 206.228L86.1648 206.239L90.114 206.875ZM99.1392 183.883L95.9037 181.531L99.1392 183.883ZM115.515 169.917L117.268 173.512L117.268 173.512L115.515 169.917ZM150.718 167.385L149.453 171.179L149.46 171.182L150.718 167.385ZM161.703 173.714L158.97 176.635L158.984 176.648L158.998 176.661L161.703 173.714ZM168.319 183.883L172.093 182.557L172.093 182.557L168.319 183.883ZM169.83 193.727H147.124V201.727H169.83V193.727ZM151.11 198.064C151.302 195.788 151.186 193.599 150.682 191.546L142.913 193.454C143.171 194.505 143.273 195.801 143.138 197.39L151.11 198.064ZM150.682 191.546C150.171 189.468 149.266 187.572 147.916 185.945L141.758 191.051C142.26 191.656 142.661 192.429 142.913 193.454L150.682 191.546ZM147.946 185.981C146.55 184.256 144.757 182.998 142.688 182.17L139.717 189.598C140.642 189.968 141.273 190.452 141.728 191.015L147.946 185.981ZM142.688 182.17C140.605 181.337 138.293 180.986 135.853 180.986V188.986C137.551 188.986 138.805 189.233 139.717 189.598L142.688 182.17ZM135.853 180.986C131.175 180.986 126.869 182.166 123.05 184.59L127.338 191.344C129.781 189.793 132.58 188.986 135.853 188.986V180.986ZM123.071 184.577C119.298 186.939 116.258 190.284 113.908 194.458L120.879 198.383C122.668 195.206 124.828 192.915 127.317 191.357L123.071 184.577ZM113.915 194.447C111.573 198.576 109.974 203.39 109.041 208.81L116.925 210.167C117.735 205.459 119.077 201.561 120.873 198.394L113.915 194.447ZM109.031 208.874C108.227 214.044 108.142 218.654 108.994 222.553L116.809 220.845C116.246 218.265 116.215 214.734 116.936 210.103L109.031 208.874ZM109.001 222.584C109.891 226.509 111.729 229.853 114.777 232.159L119.603 225.778C118.403 224.871 117.382 223.369 116.803 220.814L109.001 222.584ZM114.796 232.173C117.809 234.424 121.51 235.378 125.561 235.378V227.378C122.752 227.378 120.872 226.726 119.583 225.764L114.796 232.173ZM125.561 235.378C128.164 235.378 130.636 235.068 132.949 234.407L130.752 226.715C129.253 227.143 127.533 227.378 125.561 227.378V235.378ZM132.935 234.411C135.231 233.765 137.342 232.821 139.229 231.552L134.763 224.914C133.655 225.66 132.336 226.269 130.766 226.711L132.935 234.411ZM139.242 231.543C141.118 230.271 142.738 228.742 144.076 226.958L137.676 222.158C136.89 223.205 135.924 224.127 134.75 224.923L139.242 231.543ZM144.069 226.968C145.427 225.168 146.461 223.182 147.168 221.027L139.566 218.533C139.13 219.863 138.503 221.062 137.683 222.148L144.069 226.968ZM143.367 223.78H166.236V215.78H143.367V223.78ZM162.352 218.824C161.593 221.908 160.217 225.157 158.155 228.577L165.006 232.708C167.409 228.723 169.137 224.731 170.12 220.736L162.352 218.824ZM158.162 228.566C156.16 231.862 153.547 234.944 150.286 237.804L155.56 243.819C159.377 240.472 162.536 236.774 164.999 232.719L158.162 228.566ZM150.299 237.793C147.132 240.546 143.363 242.812 138.948 244.568L141.905 252.002C147.073 249.946 151.636 247.23 155.547 243.83L150.299 237.793ZM138.948 244.568C134.697 246.259 129.819 247.143 124.255 247.143V255.143C130.67 255.143 136.573 254.122 141.905 252.002L138.948 244.568ZM124.255 247.143C117.009 247.143 110.986 245.564 106.023 242.572L101.893 249.423C108.311 253.293 115.818 255.143 124.255 255.143V247.143ZM106.031 242.577C101.175 239.635 97.6165 235.347 95.3536 229.521L87.8964 232.418C90.752 239.769 95.4156 245.5 101.886 249.419L106.031 242.577ZM95.3588 229.535C93.1552 223.801 92.612 216.529 94.0632 207.511L86.1648 206.239C84.5668 216.17 85.0309 224.961 87.8913 232.404L95.3588 229.535ZM94.0596 207.533C95.5037 198.868 98.3174 191.817 102.375 186.235L95.9037 181.531C90.9767 188.31 87.7736 196.587 86.1685 206.217L94.0596 207.533ZM102.375 186.235C106.509 180.547 111.472 176.337 117.268 173.512L113.763 166.321C106.709 169.758 100.754 174.859 95.9037 181.531L102.375 186.235ZM117.268 173.512C123.139 170.651 129.373 169.22 136.016 169.22V161.22C128.175 161.22 120.742 162.92 113.763 166.321L117.268 173.512ZM136.016 169.22C141.141 169.22 145.604 169.896 149.453 171.179L151.983 163.59C147.174 161.987 141.835 161.22 136.016 161.22V169.22ZM149.46 171.182C153.338 172.466 156.477 174.302 158.97 176.635L164.436 170.794C160.995 167.573 156.81 165.189 151.976 163.587L149.46 171.182ZM158.998 176.661C161.484 178.944 163.336 181.767 164.545 185.209L172.093 182.557C170.471 177.94 167.912 173.985 164.408 170.768L158.998 176.661ZM164.545 185.209C165.74 188.61 166.216 192.649 165.842 197.414L173.818 198.04C174.26 192.405 173.729 187.215 172.093 182.557L164.545 185.209ZM261.576 209.652L265.52 210.313L265.522 210.306L261.576 209.652ZM252.509 232.521L249.286 230.153L249.286 230.153L252.509 232.521ZM236.052 246.447L237.798 250.046L237.798 250.046L236.052 246.447ZM194.928 246.039L196.959 242.593L196.959 242.593L194.928 246.039ZM182.309 231.092L186.02 229.598L186.02 229.598L182.309 231.092ZM180.716 207.038L184.662 207.696L184.663 207.686L184.665 207.677L180.716 207.038ZM189.701 184.087L186.467 181.733L186.467 181.733L189.701 184.087ZM206.24 169.998L204.481 166.406L204.481 166.406L206.24 169.998ZM247.405 170.366L245.354 173.8L245.361 173.804L247.405 170.366ZM259.983 185.435L256.263 186.905L256.265 186.911L256.268 186.918L259.983 185.435ZM238.706 207.038L242.651 207.703L242.654 207.685L242.657 207.667L238.706 207.038ZM238.87 194.95L234.946 195.729L234.947 195.735L238.87 194.95ZM234.745 187.518L232.236 190.633L232.249 190.643L232.261 190.653L234.745 187.518ZM215.592 187.926L213.456 184.544L213.456 184.544L215.592 187.926ZM203.585 209.652L207.522 210.36L207.53 210.318L207.537 210.276L203.585 209.652ZM203.34 221.74L199.434 222.601L199.438 222.617L199.441 222.632L203.34 221.74ZM207.669 228.968L205.276 232.173L205.285 232.18L205.295 232.188L207.669 228.968ZM226.7 228.519L224.593 225.119L224.587 225.123L224.58 225.127L226.7 228.519ZM234.337 220.229L230.852 218.264L230.847 218.274L230.841 218.284L234.337 220.229ZM257.631 208.991C256.188 217.593 253.365 224.599 249.286 230.153L255.733 234.889C260.693 228.137 263.914 219.897 265.52 210.313L257.631 208.991ZM249.286 230.153C245.126 235.817 240.135 240.02 234.306 242.848L237.798 250.046C244.873 246.613 250.854 241.532 255.733 234.889L249.286 230.153ZM234.306 242.848C228.411 245.708 222.108 247.143 215.347 247.143V255.143C223.287 255.143 230.787 253.448 237.798 250.046L234.306 242.848ZM215.347 247.143C208.098 247.143 202.018 245.576 196.959 242.593L192.896 249.484C199.381 253.308 206.914 255.143 215.347 255.143V247.143ZM196.959 242.593C191.991 239.664 188.351 235.39 186.02 229.598L178.598 232.585C181.549 239.916 186.321 245.607 192.896 249.484L196.959 242.593ZM186.02 229.598C183.735 223.921 183.162 216.696 184.662 207.696L176.771 206.381C175.112 216.33 175.601 225.14 178.598 232.585L186.02 229.598ZM184.665 207.677C186.055 199.081 188.851 192.049 192.934 186.442L186.467 181.733C181.511 188.54 178.318 196.809 176.767 206.4L184.665 207.677ZM192.934 186.442C197.094 180.729 202.112 176.473 207.999 173.591L204.481 166.406C197.354 169.895 191.346 175.031 186.467 181.733L192.934 186.442ZM207.999 173.591C213.946 170.68 220.299 169.22 227.108 169.22V161.22C219.107 161.22 211.548 162.946 204.481 166.406L207.999 173.591ZM227.108 169.22C234.292 169.22 240.325 170.797 245.354 173.8L249.456 166.931C242.996 163.074 235.497 161.22 227.108 161.22V169.22ZM245.361 173.804C250.324 176.754 253.954 181.06 256.263 186.905L263.703 183.965C260.785 176.578 256.029 170.838 249.448 166.927L245.361 173.804ZM256.268 186.918C258.558 192.656 259.13 199.942 257.629 208.998L265.522 210.306C267.179 200.304 266.689 191.446 263.698 183.952L256.268 186.918ZM242.657 207.667C243.462 202.601 243.571 198.059 242.792 194.166L234.947 195.735C235.475 198.376 235.475 201.892 234.756 206.41L242.657 207.667ZM242.793 194.172C242.004 190.191 240.245 186.772 237.229 184.382L232.261 190.653C233.438 191.585 234.429 193.121 234.946 195.729L242.793 194.172ZM237.254 184.402C234.25 181.983 230.454 180.986 226.291 180.986V188.986C229.208 188.986 231.047 189.676 232.236 190.633L237.254 184.402ZM226.291 180.986C221.583 180.986 217.261 182.141 213.456 184.544L217.728 191.308C220.131 189.791 222.942 188.986 226.291 188.986V180.986ZM213.456 184.544C209.707 186.912 206.697 190.261 204.377 194.437L211.37 198.322C213.134 195.147 215.269 192.861 217.728 191.308L213.456 184.544ZM204.377 194.437C202.059 198.609 200.507 203.502 199.634 209.028L207.537 210.276C208.297 205.457 209.604 201.501 211.37 198.322L204.377 194.437ZM199.649 208.944C198.726 214.076 198.571 218.682 199.434 222.601L207.247 220.879C206.694 218.373 206.703 214.92 207.522 210.36L199.649 208.944ZM199.441 222.632C200.338 226.551 202.202 229.878 205.276 232.173L210.063 225.764C208.834 224.846 207.813 223.354 207.24 220.848L199.441 222.632ZM205.295 232.188C208.336 234.43 212.071 235.378 216.164 235.378V227.378C213.287 227.378 211.359 226.719 210.043 225.749L205.295 232.188ZM216.164 235.378C220.807 235.378 225.069 234.255 228.82 231.911L224.58 225.127C222.232 226.594 219.47 227.378 216.164 227.378V235.378ZM228.806 231.92C232.542 229.606 235.534 226.303 237.832 222.174L230.841 218.284C229.109 221.397 227.011 223.621 224.593 225.119L228.806 231.92ZM237.821 222.194C240.141 218.079 241.722 213.218 242.651 207.703L234.762 206.374C233.948 211.204 232.616 215.137 230.852 218.264L237.821 222.194ZM267.684 250L263.738 249.345L262.965 254H267.684V250ZM281.569 166.364V162.364H278.178L277.623 165.709L281.569 166.364ZM340.375 166.364L344.319 167.033L345.111 162.364H340.375V166.364ZM337.272 184.659V188.659H340.65L341.215 185.328L337.272 184.659ZM301.171 184.659V180.659H297.757L297.221 184.031L301.171 184.659ZM298.884 199.034L294.934 198.406L294.197 203.034H298.884V199.034ZM331.391 199.034L335.335 199.703L336.127 195.034H331.391V199.034ZM328.287 217.33V221.33H331.666L332.231 217.999L328.287 217.33ZM295.78 217.33V213.33H292.386L291.834 216.678L295.78 217.33ZM290.39 250V254H293.784L294.336 250.651L290.39 250ZM271.63 250.655L285.515 167.019L277.623 165.709L263.738 249.345L271.63 250.655ZM281.569 170.364H340.375V162.364H281.569V170.364ZM336.432 165.695L333.328 183.99L341.215 185.328L344.319 167.033L336.432 165.695ZM337.272 180.659H301.171V188.659H337.272V180.659ZM297.221 184.031L294.934 198.406L302.834 199.663L305.121 185.288L297.221 184.031ZM298.884 203.034H331.391V195.034H298.884V203.034ZM327.447 198.365L324.344 216.661L332.231 217.999L335.335 199.703L327.447 198.365ZM328.287 213.33H295.78V221.33H328.287V213.33ZM291.834 216.678L286.443 249.349L294.336 250.651L299.727 217.981L291.834 216.678ZM290.39 246H267.684V254H290.39V246ZM337.142 250L333.196 249.345L332.423 254H337.142V250ZM351.027 166.364V162.364H347.636L347.081 165.709L351.027 166.364ZM409.834 166.364L413.777 167.033L414.569 162.364H409.834V166.364ZM406.73 184.659V188.659H410.109L410.674 185.328L406.73 184.659ZM370.629 184.659V180.659H367.215L366.679 184.031L370.629 184.659ZM368.342 199.034L364.392 198.406L363.655 203.034H368.342V199.034ZM400.849 199.034L404.793 199.703L405.585 195.034H400.849V199.034ZM397.746 217.33V221.33H401.124L401.689 217.999L397.746 217.33ZM365.238 217.33V213.33H361.844L361.292 216.678L365.238 217.33ZM359.848 250V254H363.242L363.794 250.651L359.848 250ZM341.088 250.655L354.973 167.019L347.081 165.709L333.196 249.345L341.088 250.655ZM351.027 170.364H409.834V162.364H351.027V170.364ZM405.89 165.695L402.786 183.99L410.674 185.328L413.777 167.033L405.89 165.695ZM406.73 180.659H370.629V188.659H406.73V180.659ZM366.679 184.031L364.392 198.406L372.292 199.663L374.579 185.288L366.679 184.031ZM368.342 203.034H400.849V195.034H368.342V203.034ZM396.906 198.365L393.802 216.661L401.689 217.999L404.793 199.703L396.906 198.365ZM397.746 213.33H365.238V221.33H397.746V213.33ZM361.292 216.678L355.901 249.349L363.794 250.651L369.185 217.981L361.292 216.678ZM359.848 246H337.142V254H359.848V246ZM406.6 250L402.654 249.345L401.881 254H406.6V250ZM420.485 166.364V162.364H417.094L416.539 165.709L420.485 166.364ZM480.762 166.364L484.706 167.033L485.498 162.364H480.762V166.364ZM477.658 184.659V188.659H481.037L481.602 185.328L477.658 184.659ZM440.087 184.659V180.659H436.673L436.137 184.031L440.087 184.659ZM437.8 199.034L433.85 198.406L433.114 203.034H437.8V199.034ZM472.268 199.034L476.211 199.703L477.003 195.034H472.268V199.034ZM469.164 217.33V221.33H472.543L473.108 217.999L469.164 217.33ZM434.697 217.33V213.33H431.283L430.746 216.701L434.697 217.33ZM432.41 231.705L428.459 231.076L427.723 235.705H432.41V231.705ZM469.817 231.705L473.761 232.374L474.553 227.705H469.817V231.705ZM466.714 250V254H470.092L470.657 250.669L466.714 250ZM410.546 250.655L424.431 167.019L416.539 165.709L402.654 249.345L410.546 250.655ZM420.485 170.364H480.762V162.364H420.485V170.364ZM476.818 165.695L473.715 183.99L481.602 185.328L484.706 167.033L476.818 165.695ZM477.658 180.659H440.087V188.659H477.658V180.659ZM436.137 184.031L433.85 198.406L441.751 199.663L444.038 185.288L436.137 184.031ZM437.8 203.034H472.268V195.034H437.8V203.034ZM468.324 198.365L465.22 216.661L473.108 217.999L476.211 199.703L468.324 198.365ZM469.164 213.33H434.697V221.33H469.164V213.33ZM430.746 216.701L428.459 231.076L436.36 232.333L438.647 217.958L430.746 216.701ZM432.41 235.705H469.817V227.705H432.41V235.705ZM465.874 231.036L462.77 249.331L470.657 250.669L473.761 232.374L465.874 231.036ZM466.714 246H406.6V254H466.714V246ZM480.438 250L476.492 249.345L475.719 254H480.438V250ZM494.323 166.364V162.364H490.932L490.377 165.709L494.323 166.364ZM554.6 166.364L558.544 167.033L559.336 162.364H554.6V166.364ZM551.496 184.659V188.659H554.875L555.44 185.328L551.496 184.659ZM513.925 184.659V180.659H510.511L509.975 184.031L513.925 184.659ZM511.638 199.034L507.688 198.406L506.952 203.034H511.638V199.034ZM546.106 199.034L550.049 199.703L550.841 195.034H546.106V199.034ZM543.002 217.33V221.33H546.381L546.946 217.999L543.002 217.33ZM508.535 217.33V213.33H505.121L504.584 216.701L508.535 217.33ZM506.248 231.705L502.298 231.076L501.561 235.705H506.248V231.705ZM543.655 231.705L547.599 232.374L548.391 227.705H543.655V231.705ZM540.552 250V254H543.93L544.495 250.669L540.552 250ZM484.384 250.655L498.269 167.019L490.377 165.709L476.492 249.345L484.384 250.655ZM494.323 170.364H554.6V162.364H494.323V170.364ZM550.656 165.695L547.553 183.99L555.44 185.328L558.544 167.033L550.656 165.695ZM551.496 180.659H513.925V188.659H551.496V180.659ZM509.975 184.031L507.688 198.406L515.589 199.663L517.876 185.288L509.975 184.031ZM511.638 203.034H546.106V195.034H511.638V203.034ZM542.162 198.365L539.058 216.661L546.946 217.999L550.049 199.703L542.162 198.365ZM543.002 213.33H508.535V221.33H543.002V213.33ZM504.584 216.701L502.298 231.076L510.198 232.333L512.485 217.958L504.584 216.701ZM506.248 235.705H543.655V227.705H506.248V235.705ZM539.712 231.036L536.608 249.331L544.495 250.669L547.599 232.374L539.712 231.036ZM540.552 246H480.438V254H540.552V246ZM594.461 166.364L598.382 167.155L599.348 162.364H594.461V166.364ZM582.863 223.864V227.864H586.137L586.784 224.655L582.863 223.864ZM564.404 223.864L560.436 223.356L559.86 227.864H564.404V223.864ZM571.755 166.364V162.364H568.234L567.787 165.856L571.755 166.364ZM562.158 247.999L559.17 250.659L559.188 250.678L559.205 250.697L562.158 247.999ZM559.667 239.872L555.689 239.453L555.688 239.464L559.667 239.872ZM563.873 231.909L561.23 228.907L561.222 228.914L561.214 228.921L563.873 231.909ZM579.963 231.909L577.01 234.607L577.019 234.617L577.028 234.626L579.963 231.909ZM582.536 239.872L578.558 239.453L578.557 239.464L582.536 239.872ZM580.29 245.671L577.066 243.304L577.06 243.312L580.29 245.671ZM575.635 249.796L577.568 253.297L577.577 253.292L577.586 253.288L575.635 249.796ZM590.54 165.573L578.942 223.073L586.784 224.655L598.382 167.155L590.54 165.573ZM582.863 219.864H564.404V227.864H582.863V219.864ZM568.372 224.371L575.723 166.871L567.787 165.856L560.436 223.356L568.372 224.371ZM571.755 170.364H594.461V162.364H571.755V170.364ZM569.958 247.307C567.812 247.307 566.313 246.617 565.111 245.301L559.205 250.697C562.032 253.792 565.733 255.307 569.958 255.307V247.307ZM565.146 245.339C563.962 244.01 563.425 242.439 563.646 240.28L555.688 239.464C555.256 243.676 556.379 247.523 559.17 250.659L565.146 245.339ZM563.645 240.291C563.86 238.244 564.748 236.485 566.533 234.897L561.214 228.921C558.043 231.743 556.127 235.293 555.689 239.453L563.645 240.291ZM566.516 234.911C568.329 233.315 570.246 232.601 572.408 232.601V224.601C568.2 224.601 564.427 226.092 561.23 228.907L566.516 234.911ZM572.408 232.601C574.322 232.601 575.763 233.242 577.01 234.607L582.917 229.211C580.134 226.165 576.539 224.601 572.408 224.601V232.601ZM577.028 234.626C578.253 235.949 578.769 237.446 578.558 239.453L586.514 240.291C586.956 236.091 585.758 232.279 582.898 229.191L577.028 234.626ZM578.557 239.464C578.413 240.869 577.93 242.128 577.066 243.304L583.514 248.039C585.21 245.73 586.224 243.122 586.515 240.28L578.557 239.464ZM577.06 243.312C576.147 244.563 575.031 245.551 573.683 246.304L577.586 253.288C579.941 251.972 581.929 250.21 583.521 248.03L577.06 243.312ZM573.701 246.294C572.43 246.996 571.199 247.307 569.958 247.307V255.307C572.637 255.307 575.191 254.61 577.568 253.297L573.701 246.294Z" fill="#040100" mask="url(#path-1-outside-1_105_2)"/>
</svg>
