<svg width="685" height="256" viewBox="0 0 685 256" fill="none" xmlns="http://www.w3.org/2000/svg">
<g filter="url(#filter0_f_91_27)">
<mask id="path-1-outside-1_91_27" maskUnits="userSpaceOnUse" x="88" y="22" width="515" height="234" fill="black">
<rect fill="white" x="88" y="22" width="515" height="234"/>
<path d="M226.699 45.6591L229.803 27.3636H302.495L299.391 45.6591H274.235L263.454 111H241.074L251.856 45.6591H226.699ZM383.245 70.652C381.72 79.7453 378.698 87.3684 374.179 93.5213C369.659 99.6742 364.173 104.316 357.721 107.447C351.269 110.578 344.367 112.143 337.016 112.143C329.175 112.143 322.369 110.442 316.597 107.039C310.825 103.636 306.619 98.6533 303.978 92.092C301.337 85.5307 300.806 77.5128 302.385 68.0384C303.856 58.9451 306.85 51.2947 311.37 45.0874C315.889 38.88 321.402 34.1836 327.909 30.9982C334.416 27.8129 341.372 26.2202 348.777 26.2202C356.564 26.2202 363.329 27.9354 369.074 31.3658C374.846 34.7962 379.038 39.8192 381.652 46.435C384.293 53.0508 384.824 61.1231 383.245 70.652ZM360.375 68.0384C361.138 63.2467 361.192 59.2173 360.539 55.9503C359.885 52.656 358.511 50.1785 356.414 48.5178C354.318 46.8298 351.5 45.9858 347.961 45.9858C343.931 45.9858 340.365 46.9659 337.261 48.9261C334.157 50.8864 331.585 53.7042 329.543 57.3796C327.501 61.055 326.071 65.4792 325.255 70.652C324.383 75.4981 324.302 79.5275 325.01 82.7401C325.745 85.9527 327.188 88.3621 329.339 89.9684C331.517 91.5747 334.348 92.3778 337.833 92.3778C341.808 92.3778 345.32 91.425 348.369 89.5192C351.446 87.6134 353.991 84.85 356.006 81.229C358.048 77.6081 359.504 73.2112 360.375 68.0384ZM389.353 111L403.238 27.3636H439.339C445.546 27.3636 450.773 28.5888 455.021 31.0391C459.268 33.4893 462.317 36.9334 464.168 41.3711C466.02 45.8088 466.455 50.9953 465.475 56.9304C464.495 62.9744 462.317 68.1881 458.941 72.5714C455.592 76.9274 451.318 80.2898 446.118 82.6584C440.945 84.9998 435.146 86.1705 428.721 86.1705H407.158L410.099 68.5284H427.087C429.81 68.5284 432.206 68.0656 434.275 67.1399C436.344 66.187 438.018 64.853 439.298 63.1378C440.577 61.3954 441.408 59.3262 441.789 56.9304C442.17 54.5346 441.993 52.4927 441.258 50.8047C440.55 49.0895 439.325 47.7827 437.583 46.8842C435.867 45.9586 433.676 45.4957 431.008 45.4957H423.003L412.059 111H389.353ZM173.33 197.727H150.624C150.787 195.794 150.678 194.052 150.297 192.5C149.916 190.948 149.263 189.614 148.337 188.498C147.411 187.354 146.2 186.483 144.702 185.884C143.205 185.285 141.422 184.986 139.353 184.986C135.378 184.986 131.825 185.98 128.694 187.967C125.563 189.927 122.963 192.745 120.894 196.42C118.825 200.069 117.355 204.425 116.483 209.489C115.721 214.389 115.694 218.459 116.402 221.699C117.137 224.939 118.566 227.362 120.69 228.968C122.84 230.575 125.631 231.378 129.061 231.378C131.348 231.378 133.445 231.106 135.351 230.561C137.284 230.017 138.999 229.241 140.496 228.233C142.021 227.199 143.314 225.974 144.376 224.558C145.465 223.115 146.295 221.522 146.867 219.78H169.736C168.865 223.319 167.313 226.94 165.081 230.643C162.848 234.318 159.962 237.708 156.423 240.811C152.884 243.888 148.718 246.379 143.927 248.285C139.135 250.191 133.744 251.143 127.755 251.143C119.914 251.143 113.148 249.428 107.458 245.998C101.795 242.567 97.6842 237.558 95.125 230.969C92.5931 224.381 92.0894 216.349 93.614 206.875C95.1387 197.727 98.1471 190.063 102.639 183.883C107.131 177.703 112.59 173.047 119.015 169.917C125.441 166.786 132.274 165.22 139.516 165.22C144.988 165.22 149.889 165.942 154.218 167.385C158.574 168.828 162.236 170.937 165.203 173.714C168.198 176.464 170.403 179.854 171.819 183.883C173.235 187.913 173.738 192.527 173.33 197.727ZM265.076 209.652C263.551 218.745 260.529 226.368 256.009 232.521C251.49 238.674 246.004 243.316 239.552 246.447C233.099 249.578 226.198 251.143 218.847 251.143C211.006 251.143 204.2 249.442 198.428 246.039C192.656 242.636 188.45 237.653 185.809 231.092C183.168 224.531 182.637 216.513 184.216 207.038C185.686 197.945 188.681 190.295 193.201 184.087C197.72 177.88 203.233 173.184 209.74 169.998C216.247 166.813 223.203 165.22 230.608 165.22C238.395 165.22 245.16 166.935 250.905 170.366C256.676 173.796 260.869 178.819 263.483 185.435C266.124 192.051 266.655 200.123 265.076 209.652ZM242.206 207.038C242.969 202.247 243.023 198.217 242.37 194.95C241.716 191.656 240.341 189.179 238.245 187.518C236.149 185.83 233.331 184.986 229.791 184.986C225.762 184.986 222.196 185.966 219.092 187.926C215.988 189.886 213.415 192.704 211.373 196.38C209.332 200.055 207.902 204.479 207.085 209.652C206.214 214.498 206.133 218.527 206.84 221.74C207.576 224.953 209.018 227.362 211.169 228.968C213.347 230.575 216.179 231.378 219.664 231.378C223.638 231.378 227.151 230.425 230.2 228.519C233.276 226.613 235.822 223.85 237.837 220.229C239.878 216.608 241.335 212.211 242.206 207.038ZM271.184 250L285.069 166.364H343.875L340.772 184.659H304.671L302.384 199.034H334.891L331.787 217.33H299.28L293.89 250H271.184ZM340.642 250L354.527 166.364H413.334L410.23 184.659H374.129L371.842 199.034H404.349L401.246 217.33H368.738L363.348 250H340.642ZM410.1 250L423.985 166.364H484.262L481.158 184.659H443.587L441.3 199.034H475.768L472.664 217.33H438.197L435.91 231.705H473.317L470.214 250H410.1ZM483.938 250L497.823 166.364H558.1L554.996 184.659H517.425L515.138 199.034H549.606L546.502 217.33H512.035L509.748 231.705H547.155L544.052 250H483.938ZM597.961 166.364L586.363 223.864H567.904L575.255 166.364H597.961ZM573.458 251.307C570.273 251.307 567.673 250.204 565.658 247.999C563.671 245.766 562.84 243.058 563.167 239.872C563.494 236.768 564.896 234.114 567.373 231.909C569.878 229.703 572.723 228.601 575.908 228.601C578.93 228.601 581.449 229.703 583.463 231.909C585.505 234.114 586.363 236.768 586.036 239.872C585.818 241.996 585.07 243.929 583.79 245.671C582.538 247.386 580.986 248.761 579.135 249.796C577.31 250.803 575.418 251.307 573.458 251.307Z"/>
</mask>
<path d="M226.699 45.6591L229.803 27.3636H302.495L299.391 45.6591H274.235L263.454 111H241.074L251.856 45.6591H226.699ZM383.245 70.652C381.72 79.7453 378.698 87.3684 374.179 93.5213C369.659 99.6742 364.173 104.316 357.721 107.447C351.269 110.578 344.367 112.143 337.016 112.143C329.175 112.143 322.369 110.442 316.597 107.039C310.825 103.636 306.619 98.6533 303.978 92.092C301.337 85.5307 300.806 77.5128 302.385 68.0384C303.856 58.9451 306.85 51.2947 311.37 45.0874C315.889 38.88 321.402 34.1836 327.909 30.9982C334.416 27.8129 341.372 26.2202 348.777 26.2202C356.564 26.2202 363.329 27.9354 369.074 31.3658C374.846 34.7962 379.038 39.8192 381.652 46.435C384.293 53.0508 384.824 61.1231 383.245 70.652ZM360.375 68.0384C361.138 63.2467 361.192 59.2173 360.539 55.9503C359.885 52.656 358.511 50.1785 356.414 48.5178C354.318 46.8298 351.5 45.9858 347.961 45.9858C343.931 45.9858 340.365 46.9659 337.261 48.9261C334.157 50.8864 331.585 53.7042 329.543 57.3796C327.501 61.055 326.071 65.4792 325.255 70.652C324.383 75.4981 324.302 79.5275 325.01 82.7401C325.745 85.9527 327.188 88.3621 329.339 89.9684C331.517 91.5747 334.348 92.3778 337.833 92.3778C341.808 92.3778 345.32 91.425 348.369 89.5192C351.446 87.6134 353.991 84.85 356.006 81.229C358.048 77.6081 359.504 73.2112 360.375 68.0384ZM389.353 111L403.238 27.3636H439.339C445.546 27.3636 450.773 28.5888 455.021 31.0391C459.268 33.4893 462.317 36.9334 464.168 41.3711C466.02 45.8088 466.455 50.9953 465.475 56.9304C464.495 62.9744 462.317 68.1881 458.941 72.5714C455.592 76.9274 451.318 80.2898 446.118 82.6584C440.945 84.9998 435.146 86.1705 428.721 86.1705H407.158L410.099 68.5284H427.087C429.81 68.5284 432.206 68.0656 434.275 67.1399C436.344 66.187 438.018 64.853 439.298 63.1378C440.577 61.3954 441.408 59.3262 441.789 56.9304C442.17 54.5346 441.993 52.4927 441.258 50.8047C440.55 49.0895 439.325 47.7827 437.583 46.8842C435.867 45.9586 433.676 45.4957 431.008 45.4957H423.003L412.059 111H389.353ZM173.33 197.727H150.624C150.787 195.794 150.678 194.052 150.297 192.5C149.916 190.948 149.263 189.614 148.337 188.498C147.411 187.354 146.2 186.483 144.702 185.884C143.205 185.285 141.422 184.986 139.353 184.986C135.378 184.986 131.825 185.98 128.694 187.967C125.563 189.927 122.963 192.745 120.894 196.42C118.825 200.069 117.355 204.425 116.483 209.489C115.721 214.389 115.694 218.459 116.402 221.699C117.137 224.939 118.566 227.362 120.69 228.968C122.84 230.575 125.631 231.378 129.061 231.378C131.348 231.378 133.445 231.106 135.351 230.561C137.284 230.017 138.999 229.241 140.496 228.233C142.021 227.199 143.314 225.974 144.376 224.558C145.465 223.115 146.295 221.522 146.867 219.78H169.736C168.865 223.319 167.313 226.94 165.081 230.643C162.848 234.318 159.962 237.708 156.423 240.811C152.884 243.888 148.718 246.379 143.927 248.285C139.135 250.191 133.744 251.143 127.755 251.143C119.914 251.143 113.148 249.428 107.458 245.998C101.795 242.567 97.6842 237.558 95.125 230.969C92.5931 224.381 92.0894 216.349 93.614 206.875C95.1387 197.727 98.1471 190.063 102.639 183.883C107.131 177.703 112.59 173.047 119.015 169.917C125.441 166.786 132.274 165.22 139.516 165.22C144.988 165.22 149.889 165.942 154.218 167.385C158.574 168.828 162.236 170.937 165.203 173.714C168.198 176.464 170.403 179.854 171.819 183.883C173.235 187.913 173.738 192.527 173.33 197.727ZM265.076 209.652C263.551 218.745 260.529 226.368 256.009 232.521C251.49 238.674 246.004 243.316 239.552 246.447C233.099 249.578 226.198 251.143 218.847 251.143C211.006 251.143 204.2 249.442 198.428 246.039C192.656 242.636 188.45 237.653 185.809 231.092C183.168 224.531 182.637 216.513 184.216 207.038C185.686 197.945 188.681 190.295 193.201 184.087C197.72 177.88 203.233 173.184 209.74 169.998C216.247 166.813 223.203 165.22 230.608 165.22C238.395 165.22 245.16 166.935 250.905 170.366C256.676 173.796 260.869 178.819 263.483 185.435C266.124 192.051 266.655 200.123 265.076 209.652ZM242.206 207.038C242.969 202.247 243.023 198.217 242.37 194.95C241.716 191.656 240.341 189.179 238.245 187.518C236.149 185.83 233.331 184.986 229.791 184.986C225.762 184.986 222.196 185.966 219.092 187.926C215.988 189.886 213.415 192.704 211.373 196.38C209.332 200.055 207.902 204.479 207.085 209.652C206.214 214.498 206.133 218.527 206.84 221.74C207.576 224.953 209.018 227.362 211.169 228.968C213.347 230.575 216.179 231.378 219.664 231.378C223.638 231.378 227.151 230.425 230.2 228.519C233.276 226.613 235.822 223.85 237.837 220.229C239.878 216.608 241.335 212.211 242.206 207.038ZM271.184 250L285.069 166.364H343.875L340.772 184.659H304.671L302.384 199.034H334.891L331.787 217.33H299.28L293.89 250H271.184ZM340.642 250L354.527 166.364H413.334L410.23 184.659H374.129L371.842 199.034H404.349L401.246 217.33H368.738L363.348 250H340.642ZM410.1 250L423.985 166.364H484.262L481.158 184.659H443.587L441.3 199.034H475.768L472.664 217.33H438.197L435.91 231.705H473.317L470.214 250H410.1ZM483.938 250L497.823 166.364H558.1L554.996 184.659H517.425L515.138 199.034H549.606L546.502 217.33H512.035L509.748 231.705H547.155L544.052 250H483.938ZM597.961 166.364L586.363 223.864H567.904L575.255 166.364H597.961ZM573.458 251.307C570.273 251.307 567.673 250.204 565.658 247.999C563.671 245.766 562.84 243.058 563.167 239.872C563.494 236.768 564.896 234.114 567.373 231.909C569.878 229.703 572.723 228.601 575.908 228.601C578.93 228.601 581.449 229.703 583.463 231.909C585.505 234.114 586.363 236.768 586.036 239.872C585.818 241.996 585.07 243.929 583.79 245.671C582.538 247.386 580.986 248.761 579.135 249.796C577.31 250.803 575.418 251.307 573.458 251.307Z" fill="#876D6D"/>
<path d="M226.699 45.6591L222.756 44.9901L221.964 49.6591H226.699V45.6591ZM229.803 27.3636V23.3636H226.424L225.859 26.6946L229.803 27.3636ZM302.495 27.3636L306.438 28.0326L307.231 23.3636H302.495V27.3636ZM299.391 45.6591V49.6591H302.77L303.335 46.3281L299.391 45.6591ZM274.235 45.6591V41.6591H270.841L270.288 45.0079L274.235 45.6591ZM263.454 111V115H266.848L267.4 111.651L263.454 111ZM241.074 111L237.128 110.349L236.36 115H241.074V111ZM251.856 45.6591L255.802 46.3103L256.57 41.6591H251.856V45.6591ZM230.643 46.3281L233.747 28.0326L225.859 26.6946L222.756 44.9901L230.643 46.3281ZM229.803 31.3636H302.495V23.3636H229.803V31.3636ZM298.551 26.6946L295.447 44.9901L303.335 46.3281L306.438 28.0326L298.551 26.6946ZM299.391 41.6591H274.235V49.6591H299.391V41.6591ZM270.288 45.0079L259.507 110.349L267.4 111.651L278.182 46.3103L270.288 45.0079ZM263.454 107H241.074V115H263.454V107ZM245.021 111.651L255.802 46.3103L247.909 45.0079L237.128 110.349L245.021 111.651ZM251.856 41.6591H226.699V49.6591H251.856V41.6591ZM383.245 70.652L387.19 71.3134L387.191 71.3059L383.245 70.652ZM374.179 93.5213L370.955 91.1534L370.955 91.1534L374.179 93.5213ZM357.721 107.447L359.467 111.046L359.467 111.046L357.721 107.447ZM316.597 107.039L318.629 103.593L318.629 103.593L316.597 107.039ZM303.978 92.092L307.689 90.5985L307.689 90.5984L303.978 92.092ZM302.385 68.0384L306.331 68.6959L306.333 68.6864L306.334 68.6768L302.385 68.0384ZM311.37 45.0874L308.136 42.733L308.136 42.733L311.37 45.0874ZM327.909 30.9982L326.15 27.4056L326.15 27.4056L327.909 30.9982ZM369.074 31.3658L367.023 34.8L367.03 34.8043L369.074 31.3658ZM381.652 46.435L377.932 47.9047L377.934 47.9113L377.937 47.9179L381.652 46.435ZM360.375 68.0384L364.32 68.7027L364.323 68.6848L364.326 68.6668L360.375 68.0384ZM360.539 55.9503L356.615 56.7285L356.616 56.7348L360.539 55.9503ZM356.414 48.5178L353.906 51.6333L353.918 51.6433L353.93 51.6531L356.414 48.5178ZM337.261 48.9261L335.125 45.5442L335.125 45.5442L337.261 48.9261ZM325.255 70.652L329.192 71.3597L329.199 71.3179L329.206 71.2758L325.255 70.652ZM325.01 82.7401L321.103 83.6008L321.107 83.6165L321.11 83.6323L325.01 82.7401ZM329.339 89.9684L326.945 93.1733L326.955 93.1805L326.964 93.1876L329.339 89.9684ZM348.369 89.5192L346.263 86.1188L346.256 86.123L346.249 86.1272L348.369 89.5192ZM356.006 81.229L352.522 79.2643L352.516 79.2742L352.51 79.2842L356.006 81.229ZM379.3 69.9906C377.857 78.5932 375.034 85.5993 370.955 91.1534L377.403 95.8892C382.362 89.1374 385.583 80.8974 387.19 71.3134L379.3 69.9906ZM370.955 91.1534C366.795 96.8168 361.804 101.02 355.975 103.848L359.467 111.046C366.543 107.613 372.524 102.532 377.403 95.8892L370.955 91.1534ZM355.975 103.848C350.08 106.708 343.778 108.143 337.016 108.143V116.143C344.956 116.143 352.457 114.448 359.467 111.046L355.975 103.848ZM337.016 108.143C329.767 108.143 323.687 106.576 318.629 103.593L314.565 110.484C321.051 114.308 328.584 116.143 337.016 116.143V108.143ZM318.629 103.593C313.66 100.664 310.02 96.3905 307.689 90.5985L300.267 93.5855C303.218 100.916 307.99 106.607 314.565 110.484L318.629 103.593ZM307.689 90.5984C305.404 84.9214 304.831 77.696 306.331 68.6959L298.44 67.3808C296.782 77.3296 297.271 86.1399 300.267 93.5855L307.689 90.5984ZM306.334 68.6768C307.724 60.081 310.521 53.0495 314.603 47.4417L308.136 42.733C303.18 49.54 299.987 57.8091 298.437 67.3999L306.334 68.6768ZM314.603 47.4417C318.763 41.7286 323.781 37.4726 329.668 34.5908L326.15 27.4056C319.023 30.8946 313.015 36.0314 308.136 42.733L314.603 47.4417ZM329.668 34.5908C335.615 31.6796 341.968 30.2202 348.777 30.2202V22.2202C340.776 22.2202 333.217 23.9461 326.15 27.4056L329.668 34.5908ZM348.777 30.2202C355.962 30.2202 361.994 31.7968 367.023 34.8L371.125 27.9315C364.665 24.0739 357.166 22.2202 348.777 22.2202V30.2202ZM367.03 34.8043C371.994 37.7542 375.623 42.0603 377.932 47.9047L385.372 44.9653C382.454 37.5782 377.698 31.8382 371.118 27.9272L367.03 34.8043ZM377.937 47.9179C380.227 53.6557 380.799 60.9419 379.299 69.998L387.191 71.3059C388.848 61.3043 388.358 52.4459 385.367 44.9521L377.937 47.9179ZM364.326 68.6668C365.132 63.6011 365.24 59.059 364.461 55.1658L356.616 56.7348C357.145 59.3756 357.144 62.8923 356.425 67.4099L364.326 68.6668ZM364.462 55.1721C363.673 51.1915 361.914 47.7717 358.898 45.3824L353.93 51.6531C355.107 52.5853 356.098 54.1205 356.615 56.7285L364.462 55.1721ZM358.923 45.4022C355.919 42.9835 352.123 41.9858 347.961 41.9858V49.9858C350.877 49.9858 352.717 50.6761 353.906 51.6333L358.923 45.4022ZM347.961 41.9858C343.252 41.9858 338.93 43.1412 335.125 45.5442L339.397 52.3081C341.8 50.7906 344.611 49.9858 347.961 49.9858V41.9858ZM335.125 45.5442C331.377 47.9117 328.366 51.2615 326.046 55.437L333.039 59.3222C334.803 56.1469 336.938 53.861 339.397 52.3081L335.125 45.5442ZM326.046 55.437C323.728 59.6087 322.176 64.5017 321.304 70.0281L329.206 71.2758C329.967 66.4566 331.273 62.5014 333.039 59.3222L326.046 55.437ZM321.318 69.9442C320.395 75.0761 320.24 79.6823 321.103 83.6008L328.916 81.8793C328.364 79.3726 328.372 75.9201 329.192 71.3597L321.318 69.9442ZM321.11 83.6323C322.007 87.5514 323.872 90.878 326.945 93.1733L331.732 86.7635C330.504 85.8462 329.482 84.3539 328.909 81.8479L321.11 83.6323ZM326.964 93.1876C330.005 95.4301 333.74 96.3778 337.833 96.3778V88.3778C334.956 88.3778 333.028 87.7193 331.713 86.7492L326.964 93.1876ZM337.833 96.3778C342.476 96.3778 346.738 95.2554 350.489 92.9112L346.249 86.1272C343.901 87.5945 341.14 88.3778 337.833 88.3778V96.3778ZM350.476 92.9196C354.211 90.6056 357.204 87.303 359.501 83.1738L352.51 79.2842C350.778 82.397 348.68 84.6212 346.263 86.1188L350.476 92.9196ZM359.49 83.1938C361.81 79.0793 363.391 74.2179 364.32 68.7027L356.431 67.374C355.617 72.2044 354.285 76.1369 352.522 79.2643L359.49 83.1938ZM389.353 111L385.407 110.345L384.634 115H389.353V111ZM403.238 27.3636V23.3636H399.847L399.292 26.7085L403.238 27.3636ZM455.021 31.0391L453.022 34.5038L453.022 34.5038L455.021 31.0391ZM464.168 41.3711L467.86 39.831L467.86 39.831L464.168 41.3711ZM465.475 56.9304L461.529 56.2787L461.527 56.2901L465.475 56.9304ZM458.941 72.5714L455.772 70.1306L455.77 70.1335L458.941 72.5714ZM446.118 82.6584L447.767 86.3025L447.776 86.2985L446.118 82.6584ZM407.158 86.1705L403.213 85.5129L402.436 90.1705H407.158V86.1705ZM410.099 68.5284V64.5284H406.71L406.153 67.8708L410.099 68.5284ZM434.275 67.1399L435.908 70.7912L435.928 70.7823L435.948 70.7731L434.275 67.1399ZM439.298 63.1378L442.504 65.5296L442.513 65.5176L442.522 65.5054L439.298 63.1378ZM441.789 56.9304L445.739 57.5589L445.739 57.5589L441.789 56.9304ZM441.258 50.8047L437.561 52.3306L437.575 52.3663L437.591 52.4018L441.258 50.8047ZM437.583 46.8842L435.683 50.4043L435.716 50.4222L435.75 50.4394L437.583 46.8842ZM423.003 45.4957V41.4957H419.616L419.058 44.8365L423.003 45.4957ZM412.059 111V115H415.446L416.004 111.659L412.059 111ZM393.299 111.655L407.184 28.0187L399.292 26.7085L385.407 110.345L393.299 111.655ZM403.238 31.3636H439.339V23.3636H403.238V31.3636ZM439.339 31.3636C445.028 31.3636 449.524 32.4858 453.022 34.5038L457.019 27.5743C452.023 24.6918 446.064 23.3636 439.339 23.3636V31.3636ZM453.022 34.5038C456.525 36.5249 458.97 39.3004 460.477 42.9112L467.86 39.831C465.664 34.5663 462.01 30.4538 457.019 27.5743L453.022 34.5038ZM460.477 42.9112C461.975 46.502 462.417 50.8987 461.529 56.2787L469.422 57.5821C470.493 51.0918 470.065 45.1157 467.86 39.831L460.477 42.9112ZM461.527 56.2901C460.641 61.7499 458.701 66.3279 455.772 70.1306L462.11 75.0121C465.933 70.0483 468.349 64.1989 469.424 57.5707L461.527 56.2901ZM455.77 70.1335C452.836 73.9501 449.089 76.9094 444.46 79.0182L447.776 86.2985C453.546 83.6701 458.349 79.9048 462.112 75.0093L455.77 70.1335ZM444.468 79.0143C439.878 81.0921 434.652 82.1705 428.721 82.1705V90.1705C435.64 90.1705 442.012 88.9075 447.767 86.3025L444.468 79.0143ZM428.721 82.1705H407.158V90.1705H428.721V82.1705ZM411.104 86.8281L414.044 69.186L406.153 67.8708L403.213 85.5129L411.104 86.8281ZM410.099 72.5284H427.087V64.5284H410.099V72.5284ZM427.087 72.5284C430.262 72.5284 433.233 71.9882 435.908 70.7912L432.641 63.4886C431.179 64.143 429.358 64.5284 427.087 64.5284V72.5284ZM435.948 70.7731C438.583 69.5595 440.799 67.8146 442.504 65.5296L436.092 60.7459C435.237 61.8913 434.105 62.8145 432.602 63.5067L435.948 70.7731ZM442.522 65.5054C444.223 63.1894 445.27 60.5062 445.739 57.5589L437.839 56.3019C437.545 58.1463 436.932 59.6013 436.074 60.7701L442.522 65.5054ZM445.739 57.5589C446.203 54.644 446.048 51.7851 444.925 49.2076L437.591 52.4018C437.938 53.2002 438.137 54.4251 437.839 56.3019L445.739 57.5589ZM444.956 49.2787C443.865 46.6354 441.949 44.6351 439.416 43.329L435.75 50.4394C436.701 50.9302 437.236 51.5436 437.561 52.3306L444.956 49.2787ZM439.482 43.3641C437.008 42.0288 434.106 41.4957 431.008 41.4957V49.4957C433.246 49.4957 434.727 49.8884 435.683 50.4043L439.482 43.3641ZM431.008 41.4957H423.003V49.4957H431.008V41.4957ZM419.058 44.8365L408.114 110.341L416.004 111.659L426.949 46.1549L419.058 44.8365ZM412.059 107H389.353V115H412.059V107ZM173.33 197.727V201.727H177.028L177.318 198.04L173.33 197.727ZM150.624 197.727L146.638 197.39L146.272 201.727H150.624V197.727ZM150.297 192.5L146.413 193.454L146.413 193.454L150.297 192.5ZM148.337 188.498L145.228 191.015L145.243 191.033L145.258 191.051L148.337 188.498ZM144.702 185.884L143.217 189.598L144.702 185.884ZM128.694 187.967L130.817 191.357L130.827 191.351L130.838 191.344L128.694 187.967ZM120.894 196.42L124.373 198.394L124.379 198.383L120.894 196.42ZM116.483 209.489L112.541 208.81L112.536 208.842L112.531 208.874L116.483 209.489ZM116.402 221.699L112.494 222.553L112.497 222.569L112.501 222.584L116.402 221.699ZM120.69 228.968L118.277 232.159L118.286 232.166L118.296 232.173L120.69 228.968ZM135.351 230.561L134.266 226.711L134.259 226.713L134.252 226.715L135.351 230.561ZM140.496 228.233L142.729 231.552L142.736 231.548L142.742 231.543L140.496 228.233ZM144.376 224.558L141.183 222.148L141.176 222.158L144.376 224.558ZM146.867 219.78V215.78H143.97L143.066 218.533L146.867 219.78ZM169.736 219.78L173.62 220.736L174.84 215.78H169.736V219.78ZM165.081 230.643L168.499 232.719L168.506 232.708L165.081 230.643ZM156.423 240.811L159.047 243.83L159.054 243.825L159.06 243.819L156.423 240.811ZM143.927 248.285L142.448 244.568L142.448 244.568L143.927 248.285ZM107.458 245.998L105.386 249.419L105.393 249.423L107.458 245.998ZM95.125 230.969L91.3913 232.404L91.3938 232.411L91.3964 232.418L95.125 230.969ZM93.614 206.875L89.6685 206.217L89.6666 206.228L89.6648 206.239L93.614 206.875ZM102.639 183.883L99.4037 181.531L102.639 183.883ZM119.015 169.917L120.768 173.512L120.768 173.512L119.015 169.917ZM154.218 167.385L152.953 171.179L152.96 171.182L154.218 167.385ZM165.203 173.714L162.47 176.635L162.484 176.648L162.498 176.661L165.203 173.714ZM171.819 183.883L175.593 182.557L175.593 182.557L171.819 183.883ZM173.33 193.727H150.624V201.727H173.33V193.727ZM154.61 198.064C154.802 195.788 154.686 193.599 154.182 191.546L146.413 193.454C146.671 194.505 146.773 195.801 146.638 197.39L154.61 198.064ZM154.182 191.546C153.671 189.468 152.766 187.572 151.416 185.945L145.258 191.051C145.76 191.656 146.161 192.429 146.413 193.454L154.182 191.546ZM151.446 185.981C150.05 184.256 148.257 182.998 146.188 182.17L143.217 189.598C144.142 189.968 144.773 190.452 145.228 191.015L151.446 185.981ZM146.188 182.17C144.105 181.337 141.793 180.986 139.353 180.986V188.986C141.051 188.986 142.305 189.233 143.217 189.598L146.188 182.17ZM139.353 180.986C134.675 180.986 130.369 182.166 126.55 184.59L130.838 191.344C133.281 189.793 136.08 188.986 139.353 188.986V180.986ZM126.571 184.577C122.798 186.939 119.758 190.284 117.408 194.458L124.379 198.383C126.168 195.206 128.328 192.915 130.817 191.357L126.571 184.577ZM117.415 194.447C115.073 198.576 113.474 203.39 112.541 208.81L120.425 210.167C121.235 205.459 122.577 201.561 124.373 198.394L117.415 194.447ZM112.531 208.874C111.727 214.044 111.642 218.654 112.494 222.553L120.309 220.845C119.746 218.265 119.715 214.734 120.436 210.103L112.531 208.874ZM112.501 222.584C113.391 226.509 115.229 229.853 118.277 232.159L123.103 225.778C121.903 224.871 120.882 223.369 120.303 220.814L112.501 222.584ZM118.296 232.173C121.309 234.424 125.01 235.378 129.061 235.378V227.378C126.252 227.378 124.372 226.726 123.083 225.764L118.296 232.173ZM129.061 235.378C131.664 235.378 134.136 235.068 136.449 234.407L134.252 226.715C132.753 227.143 131.033 227.378 129.061 227.378V235.378ZM136.435 234.411C138.731 233.765 140.842 232.821 142.729 231.552L138.263 224.914C137.155 225.66 135.836 226.269 134.266 226.711L136.435 234.411ZM142.742 231.543C144.618 230.271 146.238 228.742 147.576 226.958L141.176 222.158C140.39 223.205 139.424 224.127 138.25 224.923L142.742 231.543ZM147.569 226.968C148.927 225.168 149.961 223.182 150.668 221.027L143.066 218.533C142.63 219.863 142.003 221.062 141.183 222.148L147.569 226.968ZM146.867 223.78H169.736V215.78H146.867V223.78ZM165.852 218.824C165.093 221.908 163.717 225.157 161.655 228.577L168.506 232.708C170.909 228.723 172.637 224.731 173.62 220.736L165.852 218.824ZM161.662 228.566C159.66 231.862 157.047 234.944 153.786 237.804L159.06 243.819C162.877 240.472 166.036 236.774 168.499 232.719L161.662 228.566ZM153.799 237.793C150.632 240.546 146.863 242.812 142.448 244.568L145.405 252.002C150.573 249.946 155.136 247.23 159.047 243.83L153.799 237.793ZM142.448 244.568C138.197 246.259 133.319 247.143 127.755 247.143V255.143C134.17 255.143 140.073 254.122 145.405 252.002L142.448 244.568ZM127.755 247.143C120.509 247.143 114.486 245.564 109.523 242.572L105.393 249.423C111.811 253.293 119.318 255.143 127.755 255.143V247.143ZM109.531 242.577C104.675 239.635 101.116 235.347 98.8536 229.521L91.3964 232.418C94.252 239.769 98.9156 245.5 105.386 249.419L109.531 242.577ZM98.8588 229.535C96.6552 223.801 96.112 216.529 97.5632 207.511L89.6648 206.239C88.0668 216.17 88.5309 224.961 91.3913 232.404L98.8588 229.535ZM97.5596 207.533C99.0037 198.868 101.817 191.817 105.875 186.235L99.4037 181.531C94.4767 188.31 91.2736 196.587 89.6685 206.217L97.5596 207.533ZM105.875 186.235C110.009 180.547 114.972 176.337 120.768 173.512L117.263 166.321C110.209 169.758 104.254 174.859 99.4037 181.531L105.875 186.235ZM120.768 173.512C126.639 170.651 132.873 169.22 139.516 169.22V161.22C131.675 161.22 124.242 162.92 117.263 166.321L120.768 173.512ZM139.516 169.22C144.641 169.22 149.104 169.896 152.953 171.179L155.483 163.59C150.674 161.987 145.335 161.22 139.516 161.22V169.22ZM152.96 171.182C156.838 172.466 159.977 174.302 162.47 176.635L167.936 170.794C164.495 167.573 160.31 165.189 155.476 163.587L152.96 171.182ZM162.498 176.661C164.984 178.944 166.836 181.767 168.045 185.209L175.593 182.557C173.971 177.94 171.412 173.985 167.908 170.768L162.498 176.661ZM168.045 185.209C169.24 188.61 169.716 192.649 169.342 197.414L177.318 198.04C177.76 192.405 177.229 187.215 175.593 182.557L168.045 185.209ZM265.076 209.652L269.02 210.313L269.022 210.306L265.076 209.652ZM256.009 232.521L252.786 230.153L252.786 230.153L256.009 232.521ZM239.552 246.447L241.298 250.046L241.298 250.046L239.552 246.447ZM198.428 246.039L200.459 242.593L200.459 242.593L198.428 246.039ZM185.809 231.092L189.52 229.598L189.52 229.598L185.809 231.092ZM184.216 207.038L188.162 207.696L188.163 207.686L188.165 207.677L184.216 207.038ZM193.201 184.087L189.967 181.733L189.967 181.733L193.201 184.087ZM209.74 169.998L207.981 166.406L207.981 166.406L209.74 169.998ZM250.905 170.366L248.854 173.8L248.861 173.804L250.905 170.366ZM263.483 185.435L259.763 186.905L259.765 186.911L259.768 186.918L263.483 185.435ZM242.206 207.038L246.151 207.703L246.154 207.685L246.157 207.667L242.206 207.038ZM242.37 194.95L238.446 195.729L238.447 195.735L242.37 194.95ZM238.245 187.518L235.736 190.633L235.749 190.643L235.761 190.653L238.245 187.518ZM219.092 187.926L216.956 184.544L216.956 184.544L219.092 187.926ZM207.085 209.652L211.022 210.36L211.03 210.318L211.037 210.276L207.085 209.652ZM206.84 221.74L202.934 222.601L202.938 222.617L202.941 222.632L206.84 221.74ZM211.169 228.968L208.776 232.173L208.785 232.18L208.795 232.188L211.169 228.968ZM230.2 228.519L228.093 225.119L228.087 225.123L228.08 225.127L230.2 228.519ZM237.837 220.229L234.352 218.264L234.347 218.274L234.341 218.284L237.837 220.229ZM261.131 208.991C259.688 217.593 256.865 224.599 252.786 230.153L259.233 234.889C264.193 228.137 267.414 219.897 269.02 210.313L261.131 208.991ZM252.786 230.153C248.626 235.817 243.635 240.02 237.806 242.848L241.298 250.046C248.373 246.613 254.354 241.532 259.233 234.889L252.786 230.153ZM237.806 242.848C231.911 245.708 225.608 247.143 218.847 247.143V255.143C226.787 255.143 234.287 253.448 241.298 250.046L237.806 242.848ZM218.847 247.143C211.598 247.143 205.518 245.576 200.459 242.593L196.396 249.484C202.881 253.308 210.414 255.143 218.847 255.143V247.143ZM200.459 242.593C195.491 239.664 191.851 235.39 189.52 229.598L182.098 232.585C185.049 239.916 189.821 245.607 196.396 249.484L200.459 242.593ZM189.52 229.598C187.235 223.921 186.662 216.696 188.162 207.696L180.271 206.381C178.612 216.33 179.101 225.14 182.098 232.585L189.52 229.598ZM188.165 207.677C189.555 199.081 192.351 192.049 196.434 186.442L189.967 181.733C185.011 188.54 181.818 196.809 180.267 206.4L188.165 207.677ZM196.434 186.442C200.594 180.729 205.612 176.473 211.499 173.591L207.981 166.406C200.854 169.895 194.846 175.031 189.967 181.733L196.434 186.442ZM211.499 173.591C217.446 170.68 223.799 169.22 230.608 169.22V161.22C222.607 161.22 215.048 162.946 207.981 166.406L211.499 173.591ZM230.608 169.22C237.792 169.22 243.825 170.797 248.854 173.8L252.956 166.931C246.496 163.074 238.997 161.22 230.608 161.22V169.22ZM248.861 173.804C253.824 176.754 257.454 181.06 259.763 186.905L267.203 183.965C264.285 176.578 259.529 170.838 252.948 166.927L248.861 173.804ZM259.768 186.918C262.058 192.656 262.63 199.942 261.129 208.998L269.022 210.306C270.679 200.304 270.189 191.446 267.198 183.952L259.768 186.918ZM246.157 207.667C246.962 202.601 247.071 198.059 246.292 194.166L238.447 195.735C238.975 198.376 238.975 201.892 238.256 206.41L246.157 207.667ZM246.293 194.172C245.504 190.191 243.745 186.772 240.729 184.382L235.761 190.653C236.938 191.585 237.929 193.121 238.446 195.729L246.293 194.172ZM240.754 184.402C237.75 181.983 233.954 180.986 229.791 180.986V188.986C232.708 188.986 234.547 189.676 235.736 190.633L240.754 184.402ZM229.791 180.986C225.083 180.986 220.761 182.141 216.956 184.544L221.228 191.308C223.631 189.791 226.442 188.986 229.791 188.986V180.986ZM216.956 184.544C213.207 186.912 210.197 190.261 207.877 194.437L214.87 198.322C216.634 195.147 218.769 192.861 221.228 191.308L216.956 184.544ZM207.877 194.437C205.559 198.609 204.007 203.502 203.134 209.028L211.037 210.276C211.797 205.457 213.104 201.501 214.87 198.322L207.877 194.437ZM203.149 208.944C202.226 214.076 202.071 218.682 202.934 222.601L210.747 220.879C210.194 218.373 210.203 214.92 211.022 210.36L203.149 208.944ZM202.941 222.632C203.838 226.551 205.702 229.878 208.776 232.173L213.563 225.764C212.334 224.846 211.313 223.354 210.74 220.848L202.941 222.632ZM208.795 232.188C211.836 234.43 215.571 235.378 219.664 235.378V227.378C216.787 227.378 214.859 226.719 213.543 225.749L208.795 232.188ZM219.664 235.378C224.307 235.378 228.569 234.255 232.32 231.911L228.08 225.127C225.732 226.594 222.97 227.378 219.664 227.378V235.378ZM232.306 231.92C236.042 229.606 239.034 226.303 241.332 222.174L234.341 218.284C232.609 221.397 230.511 223.621 228.093 225.119L232.306 231.92ZM241.321 222.194C243.641 218.079 245.222 213.218 246.151 207.703L238.262 206.374C237.448 211.204 236.116 215.137 234.352 218.264L241.321 222.194ZM271.184 250L267.238 249.345L266.465 254H271.184V250ZM285.069 166.364V162.364H281.678L281.123 165.709L285.069 166.364ZM343.875 166.364L347.819 167.033L348.611 162.364H343.875V166.364ZM340.772 184.659V188.659H344.15L344.715 185.328L340.772 184.659ZM304.671 184.659V180.659H301.257L300.721 184.031L304.671 184.659ZM302.384 199.034L298.434 198.406L297.697 203.034H302.384V199.034ZM334.891 199.034L338.835 199.703L339.627 195.034H334.891V199.034ZM331.787 217.33V221.33H335.166L335.731 217.999L331.787 217.33ZM299.28 217.33V213.33H295.886L295.334 216.678L299.28 217.33ZM293.89 250V254H297.284L297.836 250.651L293.89 250ZM275.13 250.655L289.015 167.019L281.123 165.709L267.238 249.345L275.13 250.655ZM285.069 170.364H343.875V162.364H285.069V170.364ZM339.932 165.695L336.828 183.99L344.715 185.328L347.819 167.033L339.932 165.695ZM340.772 180.659H304.671V188.659H340.772V180.659ZM300.721 184.031L298.434 198.406L306.334 199.663L308.621 185.288L300.721 184.031ZM302.384 203.034H334.891V195.034H302.384V203.034ZM330.947 198.365L327.844 216.661L335.731 217.999L338.835 199.703L330.947 198.365ZM331.787 213.33H299.28V221.33H331.787V213.33ZM295.334 216.678L289.943 249.349L297.836 250.651L303.227 217.981L295.334 216.678ZM293.89 246H271.184V254H293.89V246ZM340.642 250L336.696 249.345L335.923 254H340.642V250ZM354.527 166.364V162.364H351.136L350.581 165.709L354.527 166.364ZM413.334 166.364L417.277 167.033L418.069 162.364H413.334V166.364ZM410.23 184.659V188.659H413.609L414.174 185.328L410.23 184.659ZM374.129 184.659V180.659H370.715L370.179 184.031L374.129 184.659ZM371.842 199.034L367.892 198.406L367.155 203.034H371.842V199.034ZM404.349 199.034L408.293 199.703L409.085 195.034H404.349V199.034ZM401.246 217.33V221.33H404.624L405.189 217.999L401.246 217.33ZM368.738 217.33V213.33H365.344L364.792 216.678L368.738 217.33ZM363.348 250V254H366.742L367.294 250.651L363.348 250ZM344.588 250.655L358.473 167.019L350.581 165.709L336.696 249.345L344.588 250.655ZM354.527 170.364H413.334V162.364H354.527V170.364ZM409.39 165.695L406.286 183.99L414.174 185.328L417.277 167.033L409.39 165.695ZM410.23 180.659H374.129V188.659H410.23V180.659ZM370.179 184.031L367.892 198.406L375.792 199.663L378.079 185.288L370.179 184.031ZM371.842 203.034H404.349V195.034H371.842V203.034ZM400.406 198.365L397.302 216.661L405.189 217.999L408.293 199.703L400.406 198.365ZM401.246 213.33H368.738V221.33H401.246V213.33ZM364.792 216.678L359.401 249.349L367.294 250.651L372.685 217.981L364.792 216.678ZM363.348 246H340.642V254H363.348V246ZM410.1 250L406.154 249.345L405.381 254H410.1V250ZM423.985 166.364V162.364H420.594L420.039 165.709L423.985 166.364ZM484.262 166.364L488.206 167.033L488.998 162.364H484.262V166.364ZM481.158 184.659V188.659H484.537L485.102 185.328L481.158 184.659ZM443.587 184.659V180.659H440.173L439.637 184.031L443.587 184.659ZM441.3 199.034L437.35 198.406L436.614 203.034H441.3V199.034ZM475.768 199.034L479.711 199.703L480.503 195.034H475.768V199.034ZM472.664 217.33V221.33H476.043L476.608 217.999L472.664 217.33ZM438.197 217.33V213.33H434.783L434.246 216.701L438.197 217.33ZM435.91 231.705L431.959 231.076L431.223 235.705H435.91V231.705ZM473.317 231.705L477.261 232.374L478.053 227.705H473.317V231.705ZM470.214 250V254H473.592L474.157 250.669L470.214 250ZM414.046 250.655L427.931 167.019L420.039 165.709L406.154 249.345L414.046 250.655ZM423.985 170.364H484.262V162.364H423.985V170.364ZM480.318 165.695L477.215 183.99L485.102 185.328L488.206 167.033L480.318 165.695ZM481.158 180.659H443.587V188.659H481.158V180.659ZM439.637 184.031L437.35 198.406L445.251 199.663L447.538 185.288L439.637 184.031ZM441.3 203.034H475.768V195.034H441.3V203.034ZM471.824 198.365L468.72 216.661L476.608 217.999L479.711 199.703L471.824 198.365ZM472.664 213.33H438.197V221.33H472.664V213.33ZM434.246 216.701L431.959 231.076L439.86 232.333L442.147 217.958L434.246 216.701ZM435.91 235.705H473.317V227.705H435.91V235.705ZM469.374 231.036L466.27 249.331L474.157 250.669L477.261 232.374L469.374 231.036ZM470.214 246H410.1V254H470.214V246ZM483.938 250L479.992 249.345L479.219 254H483.938V250ZM497.823 166.364V162.364H494.432L493.877 165.709L497.823 166.364ZM558.1 166.364L562.044 167.033L562.836 162.364H558.1V166.364ZM554.996 184.659V188.659H558.375L558.94 185.328L554.996 184.659ZM517.425 184.659V180.659H514.011L513.475 184.031L517.425 184.659ZM515.138 199.034L511.188 198.406L510.452 203.034H515.138V199.034ZM549.606 199.034L553.549 199.703L554.341 195.034H549.606V199.034ZM546.502 217.33V221.33H549.881L550.446 217.999L546.502 217.33ZM512.035 217.33V213.33H508.621L508.084 216.701L512.035 217.33ZM509.748 231.705L505.798 231.076L505.061 235.705H509.748V231.705ZM547.155 231.705L551.099 232.374L551.891 227.705H547.155V231.705ZM544.052 250V254H547.43L547.995 250.669L544.052 250ZM487.884 250.655L501.769 167.019L493.877 165.709L479.992 249.345L487.884 250.655ZM497.823 170.364H558.1V162.364H497.823V170.364ZM554.156 165.695L551.053 183.99L558.94 185.328L562.044 167.033L554.156 165.695ZM554.996 180.659H517.425V188.659H554.996V180.659ZM513.475 184.031L511.188 198.406L519.089 199.663L521.376 185.288L513.475 184.031ZM515.138 203.034H549.606V195.034H515.138V203.034ZM545.662 198.365L542.558 216.661L550.446 217.999L553.549 199.703L545.662 198.365ZM546.502 213.33H512.035V221.33H546.502V213.33ZM508.084 216.701L505.798 231.076L513.698 232.333L515.985 217.958L508.084 216.701ZM509.748 235.705H547.155V227.705H509.748V235.705ZM543.212 231.036L540.108 249.331L547.995 250.669L551.099 232.374L543.212 231.036ZM544.052 246H483.938V254H544.052V246ZM597.961 166.364L601.882 167.155L602.848 162.364H597.961V166.364ZM586.363 223.864V227.864H589.637L590.284 224.655L586.363 223.864ZM567.904 223.864L563.936 223.356L563.36 227.864H567.904V223.864ZM575.255 166.364V162.364H571.734L571.287 165.856L575.255 166.364ZM565.658 247.999L562.67 250.659L562.688 250.678L562.705 250.697L565.658 247.999ZM563.167 239.872L559.189 239.453L559.188 239.464L563.167 239.872ZM567.373 231.909L564.73 228.907L564.722 228.914L564.714 228.921L567.373 231.909ZM583.463 231.909L580.51 234.607L580.519 234.617L580.528 234.626L583.463 231.909ZM586.036 239.872L582.058 239.453L582.057 239.464L586.036 239.872ZM583.79 245.671L580.566 243.304L580.56 243.312L583.79 245.671ZM579.135 249.796L581.068 253.297L581.077 253.292L581.086 253.288L579.135 249.796ZM594.04 165.573L582.442 223.073L590.284 224.655L601.882 167.155L594.04 165.573ZM586.363 219.864H567.904V227.864H586.363V219.864ZM571.872 224.371L579.223 166.871L571.287 165.856L563.936 223.356L571.872 224.371ZM575.255 170.364H597.961V162.364H575.255V170.364ZM573.458 247.307C571.312 247.307 569.813 246.617 568.611 245.301L562.705 250.697C565.532 253.792 569.233 255.307 573.458 255.307V247.307ZM568.646 245.339C567.462 244.01 566.925 242.439 567.146 240.28L559.188 239.464C558.756 243.676 559.879 247.523 562.67 250.659L568.646 245.339ZM567.145 240.291C567.36 238.244 568.248 236.485 570.033 234.897L564.714 228.921C561.543 231.743 559.627 235.293 559.189 239.453L567.145 240.291ZM570.016 234.911C571.829 233.315 573.746 232.601 575.908 232.601V224.601C571.7 224.601 567.927 226.092 564.73 228.907L570.016 234.911ZM575.908 232.601C577.822 232.601 579.263 233.242 580.51 234.607L586.417 229.211C583.634 226.165 580.039 224.601 575.908 224.601V232.601ZM580.528 234.626C581.753 235.949 582.269 237.446 582.058 239.453L590.014 240.291C590.456 236.091 589.258 232.279 586.398 229.191L580.528 234.626ZM582.057 239.464C581.913 240.869 581.43 242.128 580.566 243.304L587.014 248.039C588.71 245.73 589.724 243.122 590.015 240.28L582.057 239.464ZM580.56 243.312C579.647 244.563 578.531 245.551 577.183 246.304L581.086 253.288C583.441 251.972 585.429 250.21 587.021 248.03L580.56 243.312ZM577.201 246.294C575.93 246.996 574.699 247.307 573.458 247.307V255.307C576.137 255.307 578.691 254.61 581.068 253.297L577.201 246.294Z" fill="#040100" mask="url(#path-1-outside-1_91_27)"/>
</g>
<defs>
<filter id="filter0_f_91_27" x="87.3271" y="22.2202" width="514.634" height="233.087" filterUnits="userSpaceOnUse" color-interpolation-filters="sRGB">
<feFlood flood-opacity="0" result="BackgroundImageFix"/>
<feBlend mode="normal" in="SourceGraphic" in2="BackgroundImageFix" result="shape"/>
<feGaussianBlur stdDeviation="2" result="effect1_foregroundBlur_91_27"/>
</filter>
</defs>
</svg>
