<svg width="458" height="93" viewBox="0 0 458 93" fill="none" xmlns="http://www.w3.org/2000/svg">
<g filter="url(#filter0_d_29_13)">
<path d="M23.936 82.568C20.672 82.696 17.664 82.28 14.912 81.32C12.224 80.424 10.016 79.176 8.288 77.576C6.624 75.976 5.568 74.12 5.12 72.008C4.672 69.832 5.056 67.624 6.272 65.384C7.936 62.696 11.264 61.896 16.256 62.984C20.032 63.752 22.624 64.168 24.032 64.232C25.504 64.296 26.752 64.104 27.776 63.656C32.448 62.12 35.072 60.456 35.648 58.664C36.032 57.32 35.2 55.752 33.152 53.96C32.32 53.192 31.392 52.424 30.368 51.656C29.344 50.888 28.48 50.12 27.776 49.352C24.576 46.984 22.048 44.264 20.192 41.192C18.4 38.056 17.664 34.664 17.984 31.016C18.304 27.368 18.912 24.36 19.808 21.992C20.704 19.56 21.824 17.416 23.168 15.56C25.536 12.296 28.608 9.64 32.384 7.592C36.736 5.352 40.224 3.912 42.848 3.272C48.032 2.12 53.28 2.024 58.592 2.984C60.384 3.304 61.92 3.912 63.2 4.808C64.48 5.704 65.76 6.632 67.04 7.592C69.28 9.832 69.824 12.104 68.672 14.408C68.224 15.432 67.52 16.264 66.56 16.904C65.6 17.544 64.576 17.896 63.488 17.96C63.616 19.688 63.296 20.968 62.528 21.8C61.056 23.272 58.496 24.232 54.848 24.68C49.6 24.296 46.048 24.584 44.192 25.544C42.016 26.696 41.216 29.192 41.792 33.032C41.92 33.864 42.432 34.728 43.328 35.624C44.288 36.52 45.376 37.48 46.592 38.504C47.872 39.528 49.184 40.68 50.528 41.96C51.936 43.24 53.152 44.712 54.176 46.376C57.76 52.264 57.472 59.144 53.312 67.016C50.24 72.904 44.992 77.32 37.568 80.264C33.728 81.8 29.184 82.568 23.936 82.568ZM94.3768 52.424C92.6488 57.416 90.8888 62.216 89.0968 66.824C87.3048 71.432 85.8008 74.92 84.5848 77.288C83.4328 79.72 82.4088 81.384 81.5128 82.28C80.6168 83.176 79.6888 83.784 78.7288 84.104C77.8328 84.424 76.9048 84.552 75.9448 84.488C75.0488 84.424 74.1208 84.36 73.1608 84.296C67.7848 83.464 66.1208 79.592 68.1688 72.68C69.5128 67.176 70.6008 62.696 71.4328 59.24C72.2648 55.72 72.9368 52.84 73.4488 50.6C74.0248 48.296 74.5048 46.408 74.8888 44.936C75.2728 43.4 75.6888 41.896 76.1368 40.424C76.5848 38.952 77.1288 37.288 77.7688 35.432C78.4728 33.576 79.3688 31.112 80.4568 28.04C78.0248 28.36 75.8488 28.104 73.9288 27.272C71.1128 26.056 69.9608 23.432 70.4728 19.4C70.7288 17.544 71.7208 15.816 73.4488 14.216C74.3448 13.384 75.4008 12.488 76.6168 11.528C79.1128 9.54399 84.0728 7.432 91.4968 5.192C99.1768 2.888 105.769 1.8 111.273 1.92799C112.745 1.672 114.249 1.864 115.785 2.504C117.385 3.08 118.665 3.88 119.625 4.904C120.585 5.928 121.065 7.048 121.065 8.264C121.129 9.48 120.361 10.568 118.761 11.528C117.993 12.04 117.449 12.904 117.129 14.12C116.809 15.272 116.457 16.52 116.073 17.864C115.689 19.144 115.113 20.328 114.345 21.416C113.641 22.504 112.489 23.144 110.889 23.336C110.057 23.784 108.873 24.104 107.337 24.296C105.865 24.488 104.873 24.648 104.361 24.776C103.913 24.84 103.657 25 103.593 25.256C102.441 28.648 101.065 32.776 99.4648 37.64C97.8648 42.44 96.1688 47.368 94.3768 52.424ZM81.4168 26.984C81.2888 26.984 81.2248 27.016 81.2248 27.08C81.2248 27.08 81.2888 27.08 81.4168 27.08V26.984ZM162.244 11.912C164.42 13.064 165.796 14.76 166.372 17C165.092 24.168 163.94 31.304 162.916 38.408C161.892 45.448 160.9 51.368 159.94 56.168C158.98 60.904 158.308 64.456 157.924 66.824C157.604 69.192 157.22 71.56 156.772 73.928L156.196 75.944C156.068 76.648 155.94 77.288 155.812 77.864C155.684 78.504 155.556 79.176 155.428 79.88C153.636 81.928 151.204 82.952 148.132 82.952C144.868 82.952 142.276 82.12 140.356 80.456C139.204 79.56 139.012 77.672 139.78 74.792C140.1 73.64 140.292 72.168 140.356 70.376C140.484 68.52 140.612 66.984 140.74 65.768V65.576C138.82 66.28 137.092 67.208 135.556 68.36C134.02 69.448 133.06 70.152 132.676 70.472C132.292 70.728 131.78 70.952 131.14 71.144C130.5 71.272 129.924 71.368 129.412 71.432C128.196 71.496 127.364 71.688 126.916 72.008C123.204 78.664 119.876 82.376 116.932 83.144C115.076 83.72 113.22 83.848 111.364 83.528C109.508 83.272 108.036 82.184 106.948 80.264C104.9 78.344 105.412 73.096 108.484 64.52C110.148 59.976 112.516 54.536 115.588 48.2C118.724 41.8 121.732 36.232 124.612 31.496C130.82 21.32 137.636 12.744 145.06 5.768C146.276 5.25599 147.588 4.67999 148.996 4.04C150.404 3.336 151.78 2.952 153.124 2.888C154.532 2.824 155.972 2.984 157.444 3.368C158.916 3.752 160.164 4.328 161.188 5.096C163.556 6.888 163.908 9.16 162.244 11.912ZM141.7 37.16C140.356 41 139.012 44.552 137.668 47.816C136.324 51.016 135.172 53.832 134.212 56.264L141.796 55.976C142.308 51.88 142.884 47.816 143.524 43.784C144.164 39.752 144.772 35.72 145.348 31.688L141.7 37.16ZM139.108 56.36C140.004 56.36 140.9 56.296 141.796 56.168V56.072C140.964 56.136 140.196 56.2 139.492 56.264C138.788 56.328 138.66 56.36 139.108 56.36ZM180.144 77.288C179.568 79.848 177.584 81.416 174.192 81.992C171.056 82.568 168.08 82.216 165.264 80.936C162.128 79.592 160.752 77.704 161.136 75.272C160.752 71.56 162.704 63.496 166.992 51.08C173.392 32.456 179.792 19.144 186.192 11.144C187.856 9.09599 189.264 7.78399 190.416 7.20799C191.632 6.568 193.008 5.99199 194.544 5.47999C196.08 4.968 197.68 4.488 199.344 4.04C202.672 3.144 205.808 2.536 208.752 2.216C211.76 1.832 214.448 2.184 216.816 3.272C219.184 4.296 221.008 5.832 222.288 7.88C223.632 9.928 224.464 12.36 224.784 15.176C225.104 17.928 225.008 20.84 224.496 23.912C223.984 26.92 223.056 29.992 221.712 33.128C220.368 36.2 218.672 39.08 216.624 41.768C212.144 47.656 206.896 51.464 200.88 53.192L201.84 54.824C202.672 56.104 203.664 57.512 204.816 59.048C206.032 60.584 207.216 62.152 208.368 63.752C209.584 65.352 210.672 66.952 211.632 68.552C212.592 70.152 213.296 71.656 213.744 73.064C214.768 76.2 213.968 78.472 211.344 79.88C209.232 81.16 207.568 81.48 206.352 80.84C205.84 80.52 205.328 80.104 204.816 79.592C204.304 79.144 203.6 78.76 202.704 78.44C198.928 79.528 196.048 78.568 194.064 75.56C192.848 73.64 191.92 71.88 191.28 70.28C190.64 68.68 190.096 67.336 189.648 66.248C188.496 63.88 187.184 61.832 185.712 60.104C185.008 61.832 184.208 64.04 183.312 66.728C182.224 70.12 181.008 73.64 179.664 77.288H180.144ZM199.536 21.416C198.32 24.168 197.488 26.088 197.04 27.176C196.144 29.352 195.152 31.752 194.064 34.376C193.872 35.784 193.712 36.776 193.584 37.352L194.928 36.008L196.56 35.24C197.712 34.6 198.768 34.024 199.728 33.512C200.688 33 201.552 32.36 202.32 31.592C203.792 30.12 205.072 27.72 206.16 24.392C206.16 23.752 206.256 23.112 206.448 22.472C206.704 21.832 206.864 21.192 206.928 20.552C207.184 19.144 206.608 18.152 205.2 17.576C203.92 17.448 202.32 18.504 200.4 20.744C200.016 21.192 199.728 21.416 199.536 21.416ZM269.907 4.616L270.291 4.712C271.891 5.672 273.267 6.76 274.419 7.976C275.635 9.128 276.723 10.376 277.683 11.72C278.707 13 279.507 14.408 280.083 15.944C282.515 21.832 280.403 28.424 273.747 35.72C270.931 38.792 267.763 41.416 264.243 43.592C265.139 44.232 265.971 44.712 266.739 45.032C267.571 45.288 268.723 45.832 270.195 46.664C271.667 47.432 272.627 48.936 273.075 51.176C273.523 53.352 273.395 55.816 272.691 58.568C272.051 61.32 270.835 64.168 269.043 67.112C267.315 69.992 265.043 72.584 262.227 74.888C255.827 80.2 248.403 82.44 239.955 81.608C238.739 81.608 237.971 81.512 237.651 81.32C237.331 81.128 237.075 80.968 236.883 80.84C236.691 80.712 236.275 80.616 235.635 80.552C234.035 81.832 232.211 82.632 230.163 82.952C228.115 83.272 226.163 83.112 224.307 82.472C222.515 81.832 220.979 80.744 219.699 79.208C218.483 77.672 217.875 75.656 217.875 73.16C218.067 71.496 218.387 70.184 218.835 69.224C218.643 68.648 218.547 67.944 218.547 67.112C220.723 55.528 222.771 46.664 224.691 40.52C228.595 28.296 232.819 19.08 237.363 12.872C241.075 7.62399 246.227 4.23199 252.819 2.696C259.155 1.224 264.851 1.864 269.907 4.616ZM240.051 71.624C240.819 71.432 241.459 71.4 241.971 71.528C242.547 71.592 243.219 71.56 243.987 71.432C245.843 71.24 248.339 70.088 251.475 67.976C253.459 65.992 254.515 64.04 254.643 62.12C254.771 60.2 254.483 58.984 253.779 58.472C253.075 57.896 252.115 57.608 250.899 57.608C249.747 57.608 248.435 57.8 246.963 58.184C245.555 58.504 244.179 58.696 242.835 58.76V58.952C242.515 60.232 242.195 61.352 241.875 62.312C241.555 63.272 241.267 64.2 241.011 65.096C240.435 67.208 239.987 69.384 239.667 71.624H240.051ZM257.907 21.704C255.987 21.448 253.907 22.952 251.667 26.216C250.259 28.264 249.171 31.368 248.403 35.528C249.747 34.952 251.059 34.472 252.339 34.088C253.683 33.64 254.931 33.16 256.083 32.648C258.899 31.432 260.915 29.96 262.131 28.232C263.539 26.568 263.987 25.16 263.475 24.008C262.707 22.984 261.459 22.056 259.731 21.224C259.219 21.672 258.611 21.832 257.907 21.704ZM256.467 21.32H256.755H256.467ZM308.303 7.496V7.68799C308.303 7.752 308.303 7.784 308.303 7.784C308.367 7.784 308.399 7.816 308.399 7.88V8.07199H308.495L309.071 9.608C309.711 11.464 308.047 17.224 304.079 26.888C299.855 37.192 297.903 45.224 298.223 50.984C298.927 55.08 302.351 51.784 308.495 41.096C313.359 32.776 318.063 23.656 322.607 13.736C323.183 12.392 323.791 11.016 324.431 9.608C325.071 8.136 325.871 6.92 326.831 5.96C328.943 3.656 331.503 3.048 334.511 4.13599C335.535 2.91999 336.719 2.088 338.063 1.64C339.471 1.192 340.783 1.09599 341.999 1.352C343.279 1.608 344.367 2.216 345.263 3.17599C346.159 4.07199 346.639 5.288 346.703 6.824C346.895 8.104 346.223 11.144 344.687 15.944C343.215 20.744 341.839 25.128 340.559 29.096C339.279 33.064 337.967 37.384 336.623 42.056C333.359 53.128 330.767 63.56 328.847 73.352C328.783 75.4 327.887 77.096 326.159 78.44C324.495 79.784 322.607 80.648 320.495 81.032C318.447 81.48 316.495 81.416 314.639 80.84C312.399 80.2 311.215 78.6 311.087 76.04C311.087 75.336 311.055 74.632 310.991 73.928C311.119 76.104 309.551 77.96 306.287 79.496C305.391 79.944 304.559 80.36 303.791 80.744C299.311 82.088 294.607 81.8 289.679 79.88C287.375 78.92 285.295 77.64 283.439 76.04C281.647 74.376 280.399 72.424 279.695 70.184C277.455 63.016 277.871 53.608 280.943 41.96C282.223 36.968 283.791 32.104 285.647 27.368C287.503 22.632 288.847 19.208 289.679 17.096C290.575 14.984 291.215 13.544 291.599 12.776C291.983 11.944 292.399 11.144 292.847 10.376C293.935 8.2 294.863 6.728 295.631 5.96L296.783 4.904C296.911 4.776 297.039 4.712 297.167 4.712C297.295 4.648 297.455 4.552 297.647 4.424C298.159 4.104 298.703 3.88 299.279 3.752L300.623 3.464H301.199C303.055 3.208 304.655 3.592 305.999 4.616C305.999 4.68 306.063 4.712 306.191 4.712L306.959 5.384L307.247 5.672L307.535 6.056C307.535 6.12 307.535 6.152 307.535 6.152C307.599 6.152 307.631 6.184 307.631 6.248L307.727 6.34399V6.536C307.791 6.536 307.823 6.568 307.823 6.632V6.72799C307.887 6.792 307.951 6.824 308.015 6.824V6.92C308.015 6.984 308.015 7.016 308.015 7.016C308.079 7.016 308.111 7.048 308.111 7.112C308.111 7.112 308.143 7.144 308.207 7.20799V7.304C308.207 7.368 308.239 7.432 308.303 7.496ZM310.895 71.432V71.144C310.831 71.208 310.799 71.464 310.799 71.912C310.799 71.72 310.831 71.592 310.895 71.528V71.432ZM384.678 64.904C387.43 64.84 389.286 65.48 390.246 66.824C391.206 68.168 391.494 69.704 391.11 71.432C390.79 73.16 389.894 74.888 388.422 76.616C387.014 78.28 385.254 79.432 383.142 80.072C379.238 81.8 374.182 82.952 367.974 83.528C362.406 84.104 356.902 84.04 351.462 83.336C348.198 82.888 345.926 82.088 344.646 80.936C342.086 78.696 340.966 75.56 341.286 71.528C341.414 69.608 341.798 68.04 342.438 66.824C343.462 65.16 345.062 62.728 347.238 59.528C349.478 56.328 351.686 53.416 353.862 50.792C356.102 48.168 358.31 45.64 360.486 43.208C368.998 33.672 374.022 27.688 375.558 25.256C375.878 24.744 376.358 23.752 376.998 22.28C371.174 23.624 365.318 23.528 359.43 21.992C357.19 21.416 355.654 19.976 354.822 17.672C353.926 15.176 354.566 12.84 356.742 10.664C359.878 7.272 364.518 4.744 370.662 3.08C376.422 1.544 382.182 0.967997 387.942 1.352C388.966 1.672 389.766 1.99199 390.342 2.31199C390.918 2.568 391.558 3.112 392.262 3.944L392.358 5.768C392.678 5.896 393.19 6.024 393.894 6.152C394.662 6.27999 395.238 6.43999 395.622 6.632C396.006 6.76 396.422 6.984 396.87 7.304C397.318 7.624 397.734 8.072 398.118 8.648C398.886 9.928 399.238 12.072 399.174 15.08C399.174 18.024 398.47 21.256 397.062 24.776C395.718 28.232 394.054 31.624 392.07 34.952C390.086 38.28 387.942 41.448 385.638 44.456C383.398 47.4 381.478 49.896 379.878 51.944C378.278 53.992 376.998 55.656 376.038 56.936C375.142 58.152 374.47 59.208 374.022 60.104C373.19 61.704 373.254 62.952 374.214 63.848L384.678 64.904ZM385.83 65.096H384.966H385.83ZM438.49 64.904C441.242 64.84 443.098 65.48 444.058 66.824C445.018 68.168 445.306 69.704 444.922 71.432C444.602 73.16 443.706 74.888 442.234 76.616C440.826 78.28 439.066 79.432 436.954 80.072C433.05 81.8 427.994 82.952 421.786 83.528C416.218 84.104 410.714 84.04 405.274 83.336C402.01 82.888 399.738 82.088 398.458 80.936C395.898 78.696 394.778 75.56 395.098 71.528C395.226 69.608 395.61 68.04 396.25 66.824C397.274 65.16 398.874 62.728 401.05 59.528C403.29 56.328 405.498 53.416 407.674 50.792C409.914 48.168 412.122 45.64 414.298 43.208C422.81 33.672 427.834 27.688 429.37 25.256C429.69 24.744 430.17 23.752 430.81 22.28C424.986 23.624 419.13 23.528 413.242 21.992C411.002 21.416 409.466 19.976 408.634 17.672C407.738 15.176 408.378 12.84 410.554 10.664C413.69 7.272 418.33 4.744 424.474 3.08C430.234 1.544 435.994 0.967997 441.754 1.352C442.778 1.672 443.578 1.99199 444.154 2.31199C444.73 2.568 445.37 3.112 446.074 3.944L446.17 5.768C446.49 5.896 447.002 6.024 447.706 6.152C448.474 6.27999 449.05 6.43999 449.434 6.632C449.818 6.76 450.234 6.984 450.682 7.304C451.13 7.624 451.546 8.072 451.93 8.648C452.698 9.928 453.05 12.072 452.986 15.08C452.986 18.024 452.282 21.256 450.874 24.776C449.53 28.232 447.866 31.624 445.882 34.952C443.898 38.28 441.754 41.448 439.45 44.456C437.21 47.4 435.29 49.896 433.69 51.944C432.09 53.992 430.81 55.656 429.85 56.936C428.954 58.152 428.282 59.208 427.834 60.104C427.002 61.704 427.066 62.952 428.026 63.848L438.49 64.904ZM439.642 65.096H438.778H439.642Z" fill="url(#paint0_linear_29_13)"/>
</g>
<defs>
<filter id="filter0_d_29_13" x="0.447998" y="0.487976" width="456.634" height="92.096" filterUnits="userSpaceOnUse" color-interpolation-filters="sRGB">
<feFlood flood-opacity="0" result="BackgroundImageFix"/>
<feColorMatrix in="SourceAlpha" type="matrix" values="0 0 0 0 0 0 0 0 0 0 0 0 0 0 0 0 0 0 127 0" result="hardAlpha"/>
<feOffset dy="4"/>
<feGaussianBlur stdDeviation="2"/>
<feComposite in2="hardAlpha" operator="out"/>
<feColorMatrix type="matrix" values="0 0 0 0 0 0 0 0 0 0 0 0 0 0 0 0 0 0 0.25 0"/>
<feBlend mode="normal" in2="BackgroundImageFix" result="effect1_dropShadow_29_13"/>
<feBlend mode="normal" in="SourceGraphic" in2="effect1_dropShadow_29_13" result="shape"/>
</filter>
<linearGradient id="paint0_linear_29_13" x1="228.5" y1="-35" x2="228.5" y2="114" gradientUnits="userSpaceOnUse">
<stop offset="0.46" stop-color="#FFFCFC"/>
<stop offset="1" stop-color="#50322A"/>
</linearGradient>
</defs>
</svg>
